<svg width="50" height="51" viewBox="0 0 50 51" fill="none" xmlns="http://www.w3.org/2000/svg">
<g clip-path="url(#clip0_333_22721)">
<path d="M24.6875 44.7324C20.7319 44.7324 16.8651 43.5594 13.5761 41.3618C10.2871 39.1642 7.72367 36.0406 6.20992 32.3861C4.69617 28.7316 4.3001 24.7102 5.0718 20.8306C5.84351 16.951 7.74832 13.3873 10.5454 10.5903C13.3424 7.79324 16.9061 5.88843 20.7857 5.11673C24.6653 4.34502 28.6866 4.74109 32.3412 6.25484C35.9957 7.76859 39.1193 10.332 41.3169 13.621C43.5145 16.91 44.6875 20.7768 44.6875 24.7324C44.6875 30.0368 42.5804 35.1238 38.8296 38.8746C35.0789 42.6253 29.9918 44.7324 24.6875 44.7324ZM24.6875 7.80935C21.3404 7.80935 18.0685 8.80187 15.2855 10.6614C12.5026 12.5209 10.3335 15.164 9.05262 18.2562C7.77176 21.3485 7.43662 24.7512 8.0896 28.034C8.74258 31.3167 10.3544 34.3321 12.7211 36.6988C15.0878 39.0656 18.1032 40.6773 21.386 41.3303C24.6687 41.9833 28.0714 41.6482 31.1637 40.3673C34.256 39.0864 36.899 36.9174 38.7585 34.1344C40.6181 31.3514 41.6106 28.0795 41.6106 24.7324C41.6106 20.2441 39.8276 15.9397 36.6539 12.766C33.4802 9.59232 29.1758 7.80935 24.6875 7.80935Z" fill="black"/>
<path d="M24.6874 26.2708C23.166 26.2708 21.6788 25.8197 20.4138 24.9745C19.1488 24.1292 18.1629 22.9278 17.5807 21.5223C16.9985 20.1167 16.8461 18.57 17.1429 17.0778C17.4397 15.5857 18.1724 14.215 19.2481 13.1393C20.3239 12.0635 21.6946 11.3308 23.1867 11.034C24.6789 10.7372 26.2256 10.8896 27.6311 11.4718C29.0367 12.054 30.2381 13.0399 31.0833 14.3049C31.9286 15.5699 32.3797 17.0571 32.3797 18.5785C32.3797 20.6187 31.5693 22.5752 30.1267 24.0178C28.6841 25.4604 26.7276 26.2708 24.6874 26.2708ZM24.6874 13.9632C23.7746 13.9632 22.8823 14.2338 22.1233 14.741C21.3643 15.2481 20.7727 15.969 20.4234 16.8123C20.074 17.6557 19.9826 18.5837 20.1607 19.479C20.3388 20.3743 20.7784 21.1966 21.4239 21.8421C22.0693 22.4876 22.8917 22.9272 23.787 23.1052C24.6823 23.2833 25.6103 23.1919 26.4537 22.8426C27.297 22.4933 28.0178 21.9017 28.525 21.1427C29.0321 20.3837 29.3028 19.4914 29.3028 18.5785C29.3028 17.3545 28.8166 16.1805 27.951 15.315C27.0854 14.4494 25.9115 13.9632 24.6874 13.9632Z" fill="black"/>
<path d="M39.3803 37.0404C39.1667 37.0418 38.9552 36.9988 38.7592 36.914C38.5632 36.8293 38.387 36.7047 38.2418 36.5481C36.6089 34.7669 34.624 33.344 32.4128 32.3695C30.2015 31.395 27.8121 30.89 25.3957 30.8865H23.9803C19.476 30.8768 15.1447 32.6204 11.9034 35.7481C11.6039 35.9952 11.222 36.1199 10.8344 36.0973C10.4468 36.0746 10.0821 35.9062 9.81345 35.6259C9.5448 35.3456 9.39209 34.974 9.38594 34.5858C9.37978 34.1976 9.52066 33.8214 9.78029 33.5327C13.5893 29.8511 18.6828 27.7982 23.9803 27.8096H25.3957C28.236 27.816 31.0443 28.4098 33.6442 29.5535C36.2441 30.6972 38.5794 32.3663 40.5034 34.4558C40.7066 34.6749 40.8417 34.9486 40.8919 35.2433C40.9422 35.5379 40.9055 35.8409 40.7864 36.115C40.6672 36.3892 40.4708 36.6227 40.2211 36.7871C39.9714 36.9514 39.6792 37.0394 39.3803 37.0404Z" fill="black"/>
</g>
<defs>
<clipPath id="clip0_333_22721">
<path d="M0 0.0449219H50V25.0449C50 38.852 38.8071 50.0449 25 50.0449C11.1929 50.0449 0 38.852 0 25.0449V0.0449219Z" fill="white"/>
</clipPath>
</defs>
</svg>
