<svg width="308" height="140" viewBox="0 0 308 140" fill="none" xmlns="http://www.w3.org/2000/svg">
<path d="M57.1297 60.7198H57.0497L56.9797 60.7798C56.9556 60.8089 56.9288 60.8357 56.8997 60.8598V60.9298V60.9998V61.0798V61.1598C56.8997 61.1598 56.8997 61.2198 56.8997 61.2398C56.8997 61.2598 56.8997 61.2998 56.8997 61.3298V61.4998C56.8997 61.4998 56.8997 61.5598 56.8997 61.5898C56.8997 61.6198 56.8997 61.5898 56.8997 61.6598C56.8941 61.6929 56.8941 61.7267 56.8997 61.7598C56.9326 61.8242 56.9729 61.8846 57.0197 61.9398L60.6197 65.9998L60.7497 66.1098H60.8097L60.9597 66.1798H61.0197C61.0894 66.1895 61.16 66.1895 61.2297 66.1798C61.2893 66.1897 61.3501 66.1897 61.4097 66.1798H61.5397C62.7733 65.5873 64.1129 65.2473 65.4797 65.1798C66.8493 65.2499 68.1917 65.5898 69.4297 66.1798H69.5197H69.5897H69.6897H69.9297H70.0197H70.0997H70.1797H70.2597H70.3297L70.4097 66.1098L74.0297 62.0398C74.0316 62.0132 74.0316 61.9864 74.0297 61.9598V61.8898C74.0314 61.8565 74.0314 61.8231 74.0297 61.7898C74.0297 61.7898 74.0297 61.7398 74.0297 61.7198C74.0344 61.69 74.0344 61.6596 74.0297 61.6298V61.4198C74.0297 61.4198 74.0297 61.3598 74.0297 61.3398C74.025 61.31 74.025 61.2796 74.0297 61.2498L74.2397 61.2198C74.2435 61.1899 74.2435 61.1597 74.2397 61.1298V61.0598V60.9898L74.1697 60.9198L74.0897 60.8598H74.0197C71.4041 59.6035 68.5591 58.8956 65.6597 58.7798C62.7634 58.8947 59.9215 59.6026 57.3097 60.8598M72.1697 61.9598L69.7897 64.6398C68.5025 64.0467 67.102 63.7396 65.6847 63.7396C64.2674 63.7396 62.8669 64.0467 61.5797 64.6398L59.0197 61.8198C61.077 60.9613 63.272 60.4803 65.4997 60.3998C67.7308 60.4794 69.9292 60.9604 71.9897 61.8198" fill="white"/>
<path d="M69.1497 67.6698C68.0091 67.1172 66.7662 66.8073 65.4997 66.7598C64.2337 66.8107 62.9915 67.1204 61.8497 67.6698C61.6789 67.7925 61.5578 67.9724 61.5082 68.1768C61.4586 68.3811 61.4839 68.5965 61.5794 68.7839C61.6749 68.9712 61.8343 69.1182 62.0288 69.1982C62.2233 69.2781 62.44 69.2858 62.6397 69.2198C63.5364 68.7941 64.5083 68.5494 65.4997 68.4998C66.4914 68.5476 67.4636 68.7923 68.3597 69.2198C68.4847 69.2791 68.6213 69.3099 68.7597 69.3098C68.9237 69.3088 69.0844 69.2626 69.2238 69.1761C69.3632 69.0896 69.476 68.9663 69.5497 68.8198C69.6024 68.7163 69.6339 68.6033 69.6423 68.4875C69.6507 68.3717 69.6358 68.2554 69.5985 68.1454C69.5612 68.0355 69.5023 67.9341 69.4252 67.8472C69.3482 67.7604 69.2545 67.6898 69.1497 67.6398" fill="white"/>
<path d="M56.67 36.33C56.67 36.33 56.67 36.39 56.67 36.42C56.67 36.45 56.67 36.42 56.67 36.5C56.6663 36.5299 56.6663 36.5601 56.67 36.59C56.6647 36.6063 56.6647 36.6238 56.67 36.64C56.667 36.6666 56.667 36.6934 56.67 36.72C56.6808 36.7471 56.6979 36.7711 56.72 36.79L60.33 40.86L60.46 40.96H60.52C60.5682 40.9843 60.6184 41.0044 60.67 41.02H60.73H60.94H61.12L61.25 40.97C62.4836 40.3775 63.8232 40.0375 65.19 39.97C66.5597 40.0402 67.902 40.38 69.14 40.97H69.23H69.3H69.64H69.73H69.81H69.89H69.97L70.04 40.92L70.12 40.85L73.73 36.85C73.7788 36.8001 73.8193 36.7427 73.85 36.68C73.85 36.68 73.85 36.68 73.85 36.63V36.54C73.85 36.54 73.85 36.49 73.85 36.46C73.8547 36.4302 73.8547 36.3998 73.85 36.37V36.2C73.85 36.2 73.85 36.2 73.85 36.12C73.8453 36.0902 73.8453 36.0598 73.85 36.03V35.96V35.88C73.8519 35.8567 73.8519 35.8333 73.85 35.81V35.74L73.78 35.66L73.7 35.61H73.63C71.0158 34.3484 68.1704 33.637 65.27 33.52C62.3727 33.6361 59.5304 34.3475 56.92 35.61H56.84L56.77 35.66L56.69 35.74C56.6929 35.7599 56.6929 35.7801 56.69 35.8V35.88V35.96V36.04C56.69 36.04 56.69 36.04 56.69 36.12C56.69 36.2 56.69 36.18 56.69 36.2V36.37M72.01 36.61L69.61 39.22C68.3228 38.627 66.9223 38.3199 65.505 38.3199C64.0877 38.3199 62.6873 38.627 61.4 39.22L59.02 36.54C61.0765 35.6777 63.2716 35.1933 65.5 35.11C67.7318 35.1923 69.9303 35.6768 71.99 36.54" fill="white"/>
<path d="M62.6402 44C63.5355 43.5689 64.5078 43.3207 65.5002 43.27C66.4928 43.3191 67.4654 43.5673 68.3602 44C68.4852 44.0594 68.6218 44.0901 68.7602 44.09C68.9578 44.0857 69.1484 44.0156 69.3019 43.891C69.4554 43.7663 69.5629 43.5941 69.6076 43.4015C69.6524 43.2089 69.6317 43.0069 69.5488 42.8273C69.466 42.6478 69.3257 42.501 69.1502 42.41C68.0096 41.8574 66.7667 41.5476 65.5002 41.5C64.2341 41.551 62.992 41.8607 61.8502 42.41C61.6415 42.517 61.4835 42.702 61.4105 42.9248C61.3374 43.1476 61.3553 43.3903 61.4602 43.6C61.5113 43.7038 61.5824 43.7966 61.6694 43.8729C61.7564 43.9492 61.8576 44.0076 61.9672 44.0448C62.0768 44.0819 62.1927 44.0971 62.3081 44.0894C62.4236 44.0817 62.5365 44.0514 62.6402 44Z" fill="white"/>
<path d="M46.5098 48.2201H46.4298L46.3498 48.2801L46.2798 48.3601V48.4201C46.261 48.4454 46.2442 48.4721 46.2298 48.5001V48.5701V48.6501C46.2252 48.68 46.2252 48.7103 46.2298 48.7401C46.2242 48.7665 46.2242 48.7938 46.2298 48.8201C46.225 48.8499 46.225 48.8803 46.2298 48.9101C46.2255 48.9366 46.2255 48.9636 46.2298 48.9901C46.2298 48.9901 46.2298 49.0501 46.2298 49.0801C46.2298 49.1101 46.2298 49.1301 46.2298 49.1601V49.2501C46.2616 49.3152 46.302 49.3758 46.3498 49.4301L49.9498 53.4801C49.9885 53.522 50.0321 53.559 50.0798 53.5901H50.1398L50.2898 53.6501H50.3498C50.4195 53.6599 50.4902 53.6599 50.5598 53.6501H50.7298H50.7898H50.9098C52.1434 53.0576 53.483 52.7176 54.8498 52.6501C56.2376 52.706 57.5991 53.0464 58.8498 53.6501H58.9398H58.9998H59.1098H59.3398H59.4398H59.5098H59.5998H59.6798H59.7498C59.7739 53.621 59.8007 53.5942 59.8298 53.5701L63.4498 49.5001L63.5098 49.4301C63.5068 49.4036 63.5068 49.3767 63.5098 49.3501V49.2601C63.5143 49.2337 63.5143 49.2066 63.5098 49.1801C63.5098 49.1801 63.5098 49.1201 63.5098 49.0901V48.9201C63.5098 48.9201 63.5098 48.8701 63.5098 48.8401C63.5145 48.8103 63.5145 48.78 63.5098 48.7501C63.5142 48.727 63.5142 48.7033 63.5098 48.6801V48.6001C63.5098 48.6001 63.5098 48.6001 63.5098 48.5201V48.4501L63.4398 48.3801L63.3598 48.3201L63.2398 48.2201C60.6262 46.9681 57.7854 46.2604 54.8898 46.1401C51.9909 46.259 49.1465 46.9667 46.5298 48.2201M61.3898 49.3201L59.0098 51.9901C57.7067 51.4404 56.3135 51.1353 54.8998 51.0901C53.4862 51.1353 52.093 51.4404 50.7898 51.9901L48.4198 49.3201C50.4759 48.4566 52.6713 47.9721 54.8998 47.8901C57.1315 47.9735 59.3298 48.4579 61.3898 49.3201Z" fill="white"/>
<path d="M58.5302 55.2201C57.3896 54.6675 56.1467 54.3576 54.8802 54.3101C53.6173 54.3607 52.3783 54.6704 51.2402 55.2201C51.1365 55.2719 51.0439 55.3437 50.968 55.4314C50.892 55.519 50.834 55.6207 50.7973 55.7308C50.7606 55.8408 50.746 55.957 50.7542 56.0727C50.7624 56.1884 50.7933 56.3013 50.8452 56.4051C50.8971 56.5088 50.9689 56.6013 51.0565 56.6773C51.1441 56.7533 51.2459 56.8113 51.3559 56.848C51.4659 56.8847 51.5821 56.8993 51.6978 56.8911C51.8135 56.8829 51.9265 56.8519 52.0302 56.8001C52.9282 56.3778 53.8993 56.1333 54.8902 56.0801C55.8811 56.1333 56.8523 56.3778 57.7502 56.8001C57.8697 56.8657 58.0039 56.9001 58.1402 56.9001C58.3057 56.8998 58.468 56.854 58.6091 56.7675C58.7502 56.6811 58.8648 56.5574 58.9402 56.4101C59.0443 56.1991 59.0607 55.9555 58.9858 55.7325C58.9108 55.5095 58.7506 55.3253 58.5402 55.2201" fill="white"/>
<path d="M72.7405 108.38C72.6105 108.28 69.6805 106.03 66.6305 106.03C64.6277 106.169 62.7028 106.861 61.0705 108.03C59.4333 106.863 57.5058 106.171 55.5005 106.03C52.5005 106.03 49.5005 108.28 49.4005 108.38C49.2535 108.492 49.1455 108.647 49.0918 108.824C49.038 109 49.0413 109.19 49.101 109.364C49.1607 109.539 49.274 109.691 49.4246 109.798C49.5753 109.904 49.7557 109.961 49.9405 109.96C50.1352 109.96 50.3247 109.897 50.4805 109.78C50.4805 109.78 53.0505 107.78 55.4805 107.78C57.9105 107.78 60.4805 109.78 60.4805 109.78H60.5505H60.6105H60.7105H60.7705H60.8705H60.9404H61.1105H61.1904H61.2805H61.3505H61.4404H61.5005H61.5705C61.5705 109.78 64.1505 107.78 66.5705 107.78C68.9905 107.78 71.5705 109.78 71.5705 109.78C71.7262 109.897 71.9157 109.96 72.1105 109.96C72.2458 109.963 72.3799 109.934 72.5016 109.875C72.6234 109.815 72.7293 109.728 72.8105 109.62C72.9533 109.435 73.0176 109.201 72.9895 108.969C72.9614 108.737 72.8432 108.525 72.6604 108.38" fill="white"/>
<path d="M49.0705 104.88C49.065 104.903 49.065 104.927 49.0705 104.95V105.04V105.12V105.19L49.1305 105.27L49.2205 105.37H49.2705L49.3905 105.45C49.5063 105.506 49.6323 105.536 49.7605 105.54H49.9105H50.0105H50.1005L50.1905 105.49C50.1905 105.49 52.7805 103.49 55.1905 103.49C57.6005 103.49 60.1905 105.49 60.1905 105.49C60.2181 105.513 60.2483 105.534 60.2805 105.55H60.3805H60.4405H60.5405H61.2405H61.3105H61.3905H61.4605H61.5105L61.5805 105.5C61.5805 105.5 64.1505 103.5 66.5805 103.5C69.0105 103.5 71.5805 105.5 71.5805 105.5L71.6805 105.57H71.7905H71.9105H72.1405H72.2505H72.3605L72.4505 105.5L72.5305 105.41L72.6005 105.31V105.25V105.16C72.6038 105.137 72.6038 105.113 72.6005 105.09C72.6005 105.09 72.6005 105.03 72.6005 105C72.6005 104.97 72.6005 104.94 72.6005 104.91V91.9101C72.605 91.8769 72.605 91.8432 72.6005 91.8101C72.6005 91.8101 72.6005 91.7601 72.6005 91.7401V91.6501V91.5801C72.6038 91.5502 72.6038 91.52 72.6005 91.4901C72.6034 91.4702 72.6034 91.45 72.6005 91.4301L72.8405 91.2201L72.7805 91.1601C72.6505 91.0701 69.7205 88.8101 66.6705 88.8101C64.6682 88.9511 62.7439 89.6433 61.1105 90.8101C59.4734 89.6434 57.5459 88.9513 55.5405 88.8101C52.5405 88.8101 49.5405 91.0701 49.4405 91.1601C49.437 91.1765 49.437 91.1936 49.4405 91.2101L49.2405 91.2201C49.2219 91.2524 49.2052 91.2858 49.1905 91.3201C49.1864 91.3566 49.1864 91.3935 49.1905 91.4301C49.1905 91.4301 49.1905 91.4301 49.1905 91.4901C49.1851 91.5265 49.1851 91.5636 49.1905 91.6001V104.6C49.1851 104.637 49.1851 104.674 49.1905 104.71M71.3105 92.2201V103.12C69.8931 102.263 68.2849 101.772 66.6305 101.69C64.9762 101.772 63.368 102.263 61.9505 103.12V92.2201C63.3228 91.2243 64.9411 90.6226 66.6305 90.4801C68.32 90.6226 69.9383 91.2243 71.3105 92.2201ZM60.1805 92.2201V103.12C58.7641 102.261 57.1553 101.769 55.5005 101.69C53.8492 101.771 52.2441 102.262 50.8305 103.12V92.2201C52.199 91.2242 53.8141 90.6224 55.5005 90.4801C57.1903 90.6211 58.809 91.2229 60.1805 92.2201Z" fill="white"/>
<path d="M50.4497 19.3701C48.3897 14.8101 46.0997 10.6001 43.3697 10.6001C40.6397 10.6001 38.3697 14.8101 36.2797 19.3701L35.9297 20.1401C34.9297 22.2101 33.9297 24.3401 33.9297 26.5401C33.9524 27.2817 34.2492 27.9885 34.7626 28.5241C35.276 29.0597 35.9697 29.386 36.7097 29.4401C37.6227 29.3065 38.5097 29.0333 39.3397 28.6301C40.6101 28.0443 41.9566 27.6403 43.3397 27.4301C44.7225 27.6416 46.0688 28.0455 47.3397 28.6301C48.1696 29.0333 49.0567 29.3065 49.9697 29.4401C50.7096 29.386 51.4033 29.0597 51.9168 28.5241C52.4302 27.9885 52.7269 27.2817 52.7497 26.5401C52.7497 24.3401 51.7497 22.2101 50.7497 20.1401L50.4497 19.3701ZM50.0097 27.6701C49.3272 27.4888 48.6588 27.2582 48.0097 26.9801C46.5398 26.2954 44.9701 25.8498 43.3597 25.6601C41.7458 25.8484 40.1725 26.294 38.6997 26.9801C38.0501 27.2569 37.3818 27.4875 36.6997 27.6701C36.4319 27.618 36.1888 27.479 36.008 27.2747C35.8272 27.0704 35.7189 26.8122 35.6997 26.5401C35.6997 24.7401 36.5797 22.8701 37.5097 20.9001L37.8797 20.1001C38.7397 18.1901 41.3697 12.3701 43.3497 12.3701C45.3297 12.3701 47.9497 18.1901 48.8097 20.1001L49.1797 20.9001C50.1097 22.9001 50.9897 24.7401 50.9897 26.5401C50.9705 26.8122 50.8621 27.0704 50.6814 27.2747C50.5006 27.479 50.2575 27.618 49.9897 27.6701" fill="white"/>
<path d="M31.3101 26.7599C31.4343 26.7731 31.5598 26.76 31.6785 26.7216C31.7973 26.6831 31.9066 26.6201 31.9994 26.5367C32.0922 26.4532 32.1665 26.3511 32.2173 26.2371C32.2681 26.1231 32.2943 25.9997 32.2943 25.8749C32.2943 25.75 32.2681 25.6266 32.2173 25.5126C32.1665 25.3986 32.0922 25.2965 31.9994 25.2131C31.9066 25.1296 31.7973 25.0666 31.6785 25.0281C31.5598 24.9897 31.4343 24.9767 31.3101 24.9899H7.96014C7.84373 24.9899 7.72847 25.0129 7.62105 25.0578C7.51362 25.1026 7.41617 25.1684 7.33432 25.2511C7.25247 25.3339 7.18786 25.4321 7.14423 25.54C7.1006 25.648 7.07881 25.7635 7.08013 25.8799V116.16C7.11849 117.194 7.48807 118.189 8.1344 118.997C8.78074 119.805 9.66964 120.385 10.6701 120.65L35.8901 127.81C38.3799 128.407 40.7345 129.469 42.8301 130.94L42.9701 131.03L43.1001 131.08H43.2401H43.4201H43.5901H43.6401L43.7701 131.03L43.9101 130.94C46.0233 129.461 48.3991 128.399 50.9101 127.81L76.1701 120.63C77.1616 120.361 78.0411 119.783 78.6799 118.978C79.3187 118.174 79.6832 117.186 79.7201 116.16V25.8799C79.7201 25.6438 79.6264 25.4174 79.4595 25.2505C79.2925 25.0836 79.0662 24.9899 78.8301 24.9899H55.4201C55.296 24.9767 55.1705 24.9897 55.0517 25.0281C54.933 25.0666 54.8237 25.1296 54.7308 25.2131C54.638 25.2965 54.5638 25.3986 54.513 25.5126C54.4622 25.6266 54.4359 25.75 54.4359 25.8749C54.4359 25.9997 54.4622 26.1231 54.513 26.2371C54.5638 26.3511 54.638 26.4532 54.7308 26.5367C54.8237 26.6201 54.933 26.6831 55.0517 26.7216C55.1705 26.76 55.296 26.7731 55.4201 26.7599H77.8901V76.3299H44.2401V72.8099C44.2802 72.6659 44.2802 72.5138 44.2401 72.3699V30.1299C44.2169 29.9114 44.1136 29.7092 43.9502 29.5623C43.7868 29.4154 43.5749 29.3341 43.3551 29.3341C43.1354 29.3341 42.9234 29.4154 42.76 29.5623C42.5967 29.7092 42.4934 29.9114 42.4701 30.1299V44.5699L41.7601 45.3499C38.8483 48.3313 36.5095 51.8227 34.8601 55.6499C32.3601 50.7799 31.0201 48.3999 30.4501 47.8399C30.1684 47.5472 29.8677 47.2732 29.5501 47.0199C28.8647 46.4108 28.0844 45.9177 27.2401 45.5599C27.2718 45.4487 27.2718 45.331 27.2401 45.2199C28.1333 45.2173 29.0206 45.0756 29.8701 44.7999L30.6001 44.5499L29.8101 40.6999L30.9201 39.2699L30.5701 38.7399C30.4901 38.6099 28.9901 36.3299 27.8101 34.7399C27.4984 34.3032 27.1646 33.8827 26.8101 33.4799C25.3801 31.9499 22.2101 32.3099 19.8801 34.2599C16.6401 36.9899 17.6601 41.2599 18.6701 43.1399C18.3615 43.1002 18.057 43.0333 17.7601 42.9399C17.0499 42.7384 16.3752 42.4281 15.7601 42.0199C15.5739 41.8782 15.3394 41.8155 15.1073 41.8455C14.8752 41.8754 14.6643 41.9955 14.5201 42.1799C14.4487 42.2716 14.3961 42.3765 14.3655 42.4887C14.3349 42.6008 14.3268 42.7179 14.3416 42.8332C14.3565 42.9485 14.3941 43.0597 14.4522 43.1604C14.5103 43.2611 14.5878 43.3493 14.6801 43.4199C15.4586 43.9678 16.3242 44.3803 17.2401 44.6399C17.4406 44.7035 17.6442 44.7569 17.8501 44.7999C16.4648 45.0722 15.1792 45.715 14.1301 46.6599C12.2522 48.7489 10.4896 50.9388 8.85013 53.2199V26.7599H31.3101ZM14.3101 57.0099L15.7301 62.6899C13.6677 66.9576 12.0233 71.4151 10.8201 75.9999C10.8002 76.109 10.8002 76.2208 10.8201 76.3299H8.82013V63.9899L14.3101 57.0099ZM19.9701 46.2199L23.5501 55.2199V55.5199C20.4101 53.0499 18.8101 48.3299 18.2701 46.4399C18.8305 46.3163 19.3984 46.2295 19.9701 46.1799M28.3101 66.2199C27.749 65.7294 27.2427 65.1795 26.8001 64.5799L27.8801 64.3199C28.8667 64.1083 29.8414 63.8446 30.8001 63.5299C30.0246 64.4754 29.1931 65.3737 28.3101 66.2199ZM25.3101 65.5399C25.8015 66.2307 26.3683 66.8646 27.0001 67.4299C26.4501 67.8999 25.8901 68.3699 25.3101 68.8299V65.5399ZM23.8901 60.7099C24.4401 60.3399 24.8901 60.2599 25.2701 60.4899C25.4798 60.6453 25.6485 60.8495 25.7617 61.0846C25.875 61.3198 25.9293 61.579 25.9201 61.8399C25.7786 62.3565 25.4415 62.7977 24.9801 63.0699L24.8401 63.1599C24.4531 63.4231 24.006 63.5847 23.5401 63.6299C23.1201 63.6299 22.8901 63.2699 22.5401 62.5399L22.4501 62.3499C22.3001 61.8999 22.4501 61.6799 23.9001 60.7099M23.9001 71.8799L23.9901 71.9899L28.3401 76.3399H15.9201C17.4685 74.5713 19.5086 73.3041 21.7801 72.6999C22.506 72.4884 23.212 72.214 23.8901 71.8799M42.4801 78.1099V95.2699H37.7501L36.7501 82.8099C36.7501 82.8099 36.7501 82.8099 36.7501 82.7499C36.755 82.7268 36.755 82.7029 36.7501 82.6799V82.5699L36.6901 82.4599L36.6001 82.3499C36.5714 82.3179 36.5376 82.2908 36.5001 82.2699H36.4101H36.3301H36.2601H36.1601H33.0501H32.9501H32.8701H32.8001H32.7101C32.6726 82.2908 32.6388 82.3179 32.6101 82.3499L32.5201 82.4599L32.4601 82.5699V82.6699C32.4601 82.6699 32.4601 82.7299 32.4601 82.7499C32.4648 82.7696 32.4648 82.7901 32.4601 82.8099L31.2401 95.2699H26.5501V90.8499C26.5501 90.8499 26.5501 90.8499 26.5501 90.7899C26.5545 90.7567 26.5545 90.7231 26.5501 90.6899C26.5536 90.6633 26.5536 90.6364 26.5501 90.6099C26.5546 90.5834 26.5546 90.5563 26.5501 90.5299V90.4399L26.4901 90.3699V90.2999L26.2401 90.2199L26.1701 90.1599H26.1101H26.0201H25.9501H25.8601H25.5101H25.4301H25.3501H25.2601H25.2101L17.7001 94.6599V90.8499C17.7001 90.8499 17.7001 90.8499 17.7001 90.7899C17.7045 90.7567 17.7045 90.7231 17.7001 90.6899C17.7036 90.6633 17.7036 90.6364 17.7001 90.6099C17.7001 90.6099 17.7001 90.6099 17.7001 90.5299V90.4399L17.6401 90.3599L17.4501 90.2199H17.3901L17.3201 90.1599H17.2501H17.1701H17.1001H17.0101H16.6601H16.5801H16.5001H16.4101H16.3601L8.85013 94.6599V78.0999L42.4801 78.1099ZM11.2401 118.96C10.6044 118.798 10.0356 118.441 9.61391 117.939C9.19224 117.436 8.93906 116.814 8.89013 116.16V96.6599L15.9701 92.4099V96.2199C15.9701 96.2199 15.9701 96.2899 15.9701 96.3199C15.9736 96.3464 15.9736 96.3733 15.9701 96.3999V96.4799V96.5699C16.0084 96.63 16.0556 96.684 16.1101 96.7299L16.2501 96.8299H16.3001C16.3483 96.8541 16.3985 96.8742 16.4501 96.8899H16.5001H16.7001C16.7664 96.9003 16.8339 96.9003 16.9001 96.8899H16.9601L17.1201 96.8199L24.6301 92.3099V96.0599C24.6288 96.1758 24.6506 96.2908 24.6944 96.3982C24.7381 96.5056 24.8029 96.6031 24.8849 96.6851C24.9669 96.7671 25.0644 96.8319 25.1718 96.8756C25.2792 96.9194 25.3942 96.9412 25.5101 96.9399H31.9501C32.0064 96.9496 32.0639 96.9496 32.1201 96.9399H32.1801H32.2801H32.3501H32.4301L32.4901 96.8899C32.4901 96.8899 32.5401 96.8899 32.5601 96.8299H32.6101L32.6701 96.7599V96.6999C32.6734 96.67 32.6734 96.6398 32.6701 96.6099V96.5499C32.6748 96.5167 32.6748 96.483 32.6701 96.4499C32.6701 96.4499 32.6701 96.4499 32.6701 96.3799C32.6701 96.3099 32.6701 96.3799 32.6701 96.3199L33.6701 83.8599H34.6701L35.6701 96.3199C35.6701 96.3199 35.6701 96.3199 35.6701 96.3799C35.675 96.4029 35.675 96.4268 35.6701 96.4499V96.5499V96.6099C35.6668 96.6398 35.6668 96.67 35.6701 96.6999V96.7599L35.7301 96.8299C35.7301 96.8299 35.7801 96.8299 35.8001 96.8899L35.8601 96.9399H35.9401H36.0101H36.1101H36.1701C36.2264 96.9496 36.2839 96.9496 36.3401 96.9399H41.8901V128.47C39.9734 127.379 37.9182 126.551 35.7801 126.01L11.2401 118.96ZM77.8901 78.0999V116.16C77.8404 116.807 77.5916 117.422 77.178 117.922C76.7644 118.421 76.2062 118.78 75.5801 118.95L50.3601 126.11C48.2187 126.65 46.16 127.478 44.2401 128.57V78.0999H77.8901ZM30.4801 76.3299C30.4787 76.1038 30.3931 75.8863 30.2401 75.7199L25.4701 70.9399C26.4201 70.2399 27.4201 69.4299 28.4101 68.5399C30.0277 69.6984 31.7765 70.6617 33.6201 71.4099C38.0801 73.2899 40.6201 73.7899 42.1501 73.7899H42.5001V76.3399L30.4801 76.3299ZM42.4801 47.2199V71.9999C41.6501 72.0699 39.3901 71.9299 34.2901 69.7799C32.6776 69.12 31.1391 68.2921 29.7001 67.3099C32.1201 64.9399 34.3001 62.1799 35.2201 59.5699C36.7158 54.9754 39.1931 50.7613 42.4801 47.2199ZM33.9801 57.8599C33.8301 58.2399 33.6901 58.6299 33.5501 59.0299C33.3621 59.5497 33.1348 60.0545 32.8701 60.5399C31.2683 61.6031 29.458 62.3123 27.5601 62.6199C27.6186 62.4609 27.6622 62.2969 27.6901 62.1299C27.7663 61.3812 27.5827 60.6292 27.1701 59.9999L31.5901 57.2199C31.6886 57.1542 31.7732 57.0698 31.8391 56.9714C31.905 56.8731 31.9508 56.7627 31.974 56.6466C31.9972 56.5306 31.9974 56.4111 31.9744 56.2949C31.9514 56.1788 31.9058 56.0684 31.8401 55.9699C31.7745 55.8714 31.6901 55.7868 31.5917 55.7209C31.4933 55.655 31.383 55.6092 31.2669 55.586C31.1508 55.5628 31.0313 55.5626 30.9152 55.5856C30.7991 55.6086 30.6886 55.6542 30.5901 55.7199L25.7001 58.7999C25.5608 58.7468 25.4168 58.7066 25.2701 58.6799V58.2199C27.9101 55.6399 29.0501 51.8499 29.5201 49.6099C30.0701 50.4699 31.2801 52.6099 33.9301 57.8299M28.0401 48.0699C27.6695 50.6986 26.7422 53.2181 25.3201 55.4599V55.2199L26.8801 47.3499C27.2912 47.552 27.68 47.7967 28.0401 48.0799M28.5401 43.3599C27.4201 43.5699 25.3101 43.6999 24.0801 42.1199C23.9328 41.9364 23.7194 41.818 23.4857 41.7899C23.2521 41.7619 23.0167 41.8265 22.8301 41.9699C22.7382 42.0421 22.6614 42.1317 22.6041 42.2336C22.5468 42.3355 22.5101 42.4477 22.4962 42.5638C22.4822 42.6799 22.4913 42.7976 22.5229 42.9101C22.5544 43.0227 22.6079 43.1279 22.6801 43.2199C23.3955 44.1437 24.4042 44.7962 25.5401 45.0699C25.5401 45.0699 25.5401 45.1499 25.5401 45.1999L24.1701 52.1099L21.4201 45.1099C21.4201 45.1099 20.8001 43.3899 22.3701 39.9299C22.8349 39.0767 23.4638 38.3238 24.2207 37.7145C24.9775 37.1053 25.8473 36.6517 26.7801 36.3799C27.4701 37.3799 28.2601 38.5099 28.7801 39.2999L27.9401 40.3699L28.5401 43.3599ZM21.0101 35.6399C22.8201 34.1199 24.9101 34.0699 25.5101 34.7099L25.6101 34.8199C23.4903 35.5752 21.7404 37.114 20.7201 39.1199C20.3685 39.8779 20.0808 40.6639 19.8601 41.4699C19.3901 40.0999 18.8601 37.4699 21.0101 35.6399ZM8.87013 56.2199C8.87013 56.1599 13.5001 49.7699 15.3701 47.8999C15.7251 47.5586 16.1339 47.2781 16.5801 47.0699C17.2401 49.4299 19.2401 55.2199 23.5501 57.7499V58.8799C23.2934 58.9976 23.0461 59.1346 22.8101 59.2899C21.6101 60.0999 20.1201 61.0999 20.8101 62.9799L20.9501 63.2799C21.1227 63.8458 21.4588 64.3481 21.9161 64.7235C22.3733 65.0989 22.9314 65.3308 23.5201 65.3899V70.0099C22.8002 70.4555 22.0184 70.7924 21.2001 71.0099C18.3503 71.773 15.8307 73.4528 14.0301 75.7899C13.9074 75.9438 13.8373 76.1331 13.8301 76.3299H12.5701C13.7839 71.8143 15.4246 67.4245 17.4701 63.2199V63.1299C17.4746 63.1034 17.4746 63.0763 17.4701 63.0499C17.4701 63.0499 17.4701 62.9899 17.4701 62.9699V62.7199C17.4701 62.7199 17.4701 62.6499 17.4701 62.6099L15.6001 54.8199V54.7199V54.6599L15.5501 54.5699V54.5099L15.5001 54.4399L15.4301 54.3799H15.3801H15.3101H15.2201H15.1601H15.0601H14.6501H14.5401H14.4801L14.3901 54.4399H14.3401L14.2701 54.5099L14.2101 54.5699L9.01014 61.1999V56.2199" fill="white"/>
<path d="M85.8501 17.9102H53.1001C52.8816 17.9334 52.6794 18.0367 52.5325 18.2001C52.3855 18.3635 52.3043 18.5754 52.3043 18.7952C52.3043 19.0149 52.3855 19.2269 52.5325 19.3902C52.6794 19.5536 52.8816 19.6569 53.1001 19.6802H84.9701V116.16C84.9701 120.6 81.8901 124.25 76.7601 125.93L51.9701 133.01C47.1501 134.48 44.5701 136.51 43.3801 137.72C40.9442 135.467 37.9904 133.849 34.7801 133.01L10.0301 125.94C4.87006 124.25 1.79006 120.6 1.79006 116.16V19.6802H33.6301C33.8486 19.6569 34.0507 19.5536 34.1976 19.3902C34.3446 19.2269 34.4258 19.0149 34.4258 18.7952C34.4258 18.5754 34.3446 18.3635 34.1976 18.2001C34.0507 18.0367 33.8486 17.9334 33.6301 17.9102H0.880056C0.763647 17.9101 0.648393 17.9332 0.540969 17.9781C0.433546 18.0229 0.336088 18.0886 0.25424 18.1714C0.172393 18.2542 0.107782 18.3524 0.0641504 18.4603C0.0205189 18.5682 -0.00126601 18.6838 5.68253e-05 18.8002V116.16C5.68253e-05 121.32 3.62006 125.72 9.49006 127.63L34.2401 134.71C38.7501 136.09 41.5301 138.14 42.6401 139.6L42.7301 139.7L42.8701 139.78H43.0001H43.2401H43.4201H43.5901H43.6401H43.7801L43.9201 139.7L44.0101 139.61C45.1201 138.15 47.9101 136.1 52.4101 134.72L77.2401 127.62C83.0701 125.72 86.7001 121.32 86.7001 116.16V18.8002C86.7001 18.5641 86.6063 18.3377 86.4394 18.1708C86.2725 18.0039 86.0461 17.9102 85.8101 17.9102" fill="white"/>
<path d="M29.3604 8.49V8.57V8.65C29.3604 8.65 29.3604 8.7 29.3604 8.73C29.3604 8.76 29.3604 8.79 29.3604 8.82V8.99C29.3604 8.99 29.3604 9.04 29.3604 9.07C29.3604 9.1 29.3604 9.13 29.3604 9.16C29.3604 9.16 29.3604 9.16 29.3604 9.21L29.4304 9.32C29.4582 9.36127 29.4919 9.39831 29.5304 9.43L29.6204 9.5C29.6766 9.53446 29.7371 9.56136 29.8004 9.58C29.8667 9.58971 29.934 9.58971 30.0004 9.58C30.0666 9.59048 30.1341 9.59048 30.2004 9.58H30.2604L37.0104 7.22C39.7339 8.64156 42.7684 9.36324 45.8404 9.32C53.2404 9.32 57.0504 5.64 57.2404 5.48C57.4029 5.31055 57.4937 5.08482 57.4937 4.85C57.4937 4.61518 57.4029 4.38945 57.2404 4.22C57.0504 4.07 53.2404 0.39 45.8404 0.39C42.7858 0.346009 39.7673 1.05342 37.0504 2.45L30.4604 0H30.3804H30.2904H30.0504H29.9504H29.8804H29.7904L29.7104 0.0600001L29.5404 0.22H29.4804L29.4304 0.28V0.36C29.4285 0.386636 29.4285 0.413364 29.4304 0.44C29.4304 0.44 29.4304 0.49 29.4304 0.52C29.4304 0.55 29.4304 0.58 29.4304 0.61V0.78C29.4304 0.78 29.4304 0.78 29.4304 0.86C29.4304 0.94 29.4304 0.92 29.4304 0.95V1.03V1.11L31.4304 4.71L29.4304 8.3M55.2304 4.67C52.4776 6.58642 49.1942 7.59347 45.8404 7.55C42.9399 7.62187 40.0712 6.9323 37.5204 5.55L37.3704 5.49H37.2504H36.9504H36.8204L32.1004 7.22L33.4204 4.88L32.1004 2.5L36.8104 4.22H36.8804H36.9804H37.2404H37.3904H37.5404C40.0811 2.84881 42.9339 2.15973 45.8204 2.22C49.1316 2.13357 52.3881 3.07697 55.1404 4.92" fill="white"/>
<path d="M32.6705 107.91H31.7405C31.6773 107.434 31.5564 106.967 31.3805 106.52L32.1705 106.06C32.271 106.002 32.3591 105.925 32.4298 105.833C32.5005 105.742 32.5524 105.637 32.5826 105.525C32.6127 105.413 32.6206 105.296 32.6056 105.181C32.5907 105.066 32.5533 104.955 32.4955 104.855C32.4377 104.754 32.3607 104.666 32.2689 104.596C32.1771 104.525 32.0722 104.473 31.9603 104.443C31.8484 104.413 31.7317 104.405 31.6167 104.42C31.5018 104.435 31.391 104.472 31.2905 104.53L30.4805 105C30.1845 104.631 29.8492 104.296 29.4805 104L29.9405 103.19C29.9994 103.09 30.0378 102.98 30.0536 102.866C30.0694 102.751 30.0621 102.635 30.0324 102.523C30.0026 102.411 29.9508 102.306 29.8801 102.215C29.8094 102.123 29.7211 102.047 29.6205 101.99C29.5202 101.931 29.4092 101.892 29.2939 101.876C29.1786 101.86 29.0612 101.868 28.9487 101.897C28.8361 101.927 28.7306 101.979 28.6382 102.05C28.5459 102.121 28.4685 102.209 28.4105 102.31L27.9505 103.1C27.502 102.929 27.0358 102.808 26.5605 102.74V101.81C26.5372 101.591 26.434 101.389 26.2706 101.242C26.1072 101.095 25.8952 101.014 25.6755 101.014C25.4558 101.014 25.2438 101.095 25.0804 101.242C24.917 101.389 24.8138 101.591 24.7905 101.81V102.74C24.312 102.808 23.8424 102.929 23.3905 103.1L22.9405 102.31C22.8215 102.108 22.6278 101.961 22.4012 101.901C22.1747 101.841 21.9337 101.873 21.7305 101.99C21.629 102.046 21.5398 102.122 21.4681 102.213C21.3964 102.304 21.3436 102.409 21.3129 102.52C21.2821 102.632 21.2741 102.749 21.2891 102.864C21.3041 102.979 21.342 103.09 21.4005 103.19L21.8705 104C21.4995 104.293 21.1639 104.629 20.8705 105L20.0605 104.53C19.8599 104.44 19.6332 104.428 19.424 104.495C19.2149 104.562 19.038 104.705 18.9275 104.895C18.817 105.085 18.7807 105.309 18.8256 105.524C18.8704 105.739 18.9933 105.93 19.1705 106.06L19.9705 106.52C19.7945 106.967 19.6737 107.434 19.6105 107.91H18.6805C18.5564 107.897 18.4309 107.91 18.3121 107.948C18.1934 107.987 18.084 108.05 17.9912 108.133C17.8984 108.217 17.8242 108.319 17.7734 108.433C17.7225 108.547 17.6963 108.67 17.6963 108.795C17.6963 108.92 17.7225 109.043 17.7734 109.157C17.8242 109.271 17.8984 109.373 17.9912 109.457C18.084 109.54 18.1934 109.603 18.3121 109.642C18.4309 109.68 18.5564 109.693 18.6805 109.68H19.6105C19.6725 110.16 19.7934 110.63 19.9705 111.08L19.1705 111.54C19.0057 111.64 18.8779 111.792 18.8065 111.971C18.7352 112.15 18.7241 112.348 18.7748 112.534C18.8256 112.72 18.9356 112.885 19.0881 113.003C19.2406 113.122 19.4275 113.187 19.6205 113.19C19.7752 113.189 19.9269 113.148 20.0605 113.07L20.8705 112.6C21.1632 112.972 21.4989 113.307 21.8705 113.6L21.4005 114.41C21.3237 114.545 21.2835 114.698 21.2841 114.853C21.2847 115.009 21.326 115.161 21.4039 115.296C21.4818 115.43 21.5935 115.542 21.728 115.62C21.8625 115.698 22.0151 115.739 22.1705 115.74C22.3257 115.738 22.4779 115.697 22.6127 115.62C22.7475 115.543 22.8603 115.433 22.9405 115.3L23.3905 114.5C23.8409 114.676 24.311 114.797 24.7905 114.86V115.79C24.7773 115.914 24.7903 116.04 24.8288 116.158C24.8672 116.277 24.9302 116.386 25.0137 116.479C25.0972 116.572 25.1992 116.646 25.3132 116.697C25.4272 116.748 25.5507 116.774 25.6755 116.774C25.8003 116.774 25.9237 116.748 26.0378 116.697C26.1518 116.646 26.2538 116.572 26.3373 116.479C26.4208 116.386 26.4838 116.277 26.5222 116.158C26.5607 116.04 26.5737 115.914 26.5605 115.79V114.86C27.0367 114.797 27.5035 114.676 27.9505 114.5L28.4105 115.3C28.4615 115.414 28.5359 115.516 28.6288 115.599C28.7218 115.682 28.8312 115.745 28.95 115.783C29.0688 115.822 29.1944 115.835 29.3184 115.821C29.4425 115.808 29.5624 115.768 29.6703 115.706C29.7782 115.643 29.8717 115.558 29.9447 115.457C30.0177 115.356 30.0686 115.24 30.0941 115.118C30.1195 114.996 30.119 114.87 30.0926 114.748C30.0661 114.626 30.0143 114.511 29.9405 114.41L29.4705 113.6C29.8415 113.307 30.1771 112.971 30.4705 112.6L31.2805 113.07C31.3814 113.129 31.4929 113.167 31.6087 113.182C31.7244 113.197 31.842 113.189 31.9546 113.158C32.0672 113.128 32.1726 113.075 32.2646 113.003C32.3566 112.931 32.4334 112.842 32.4905 112.74C32.549 112.64 32.5868 112.529 32.6019 112.414C32.6169 112.299 32.6089 112.182 32.5781 112.07C32.5474 111.959 32.4946 111.854 32.4229 111.763C32.3511 111.672 32.2619 111.596 32.1605 111.54L31.3705 111.08C31.5476 110.63 31.6685 110.16 31.7305 109.68H32.6605C32.879 109.657 33.0812 109.553 33.2281 109.39C33.375 109.227 33.4563 109.015 33.4563 108.795C33.4563 108.575 33.375 108.363 33.2281 108.2C33.0812 108.036 32.879 107.933 32.6605 107.91M25.6605 113.19C24.7898 113.19 23.9387 112.932 23.215 112.448C22.4912 111.964 21.9272 111.276 21.5945 110.471C21.2617 109.667 21.1752 108.782 21.3458 107.928C21.5164 107.074 21.9364 106.29 22.5528 105.675C23.1691 105.06 23.9541 104.642 24.8082 104.473C25.6624 104.305 26.5474 104.393 27.3512 104.728C28.1551 105.062 28.8416 105.628 29.3238 106.353C29.8061 107.078 30.0625 107.929 30.0605 108.8C30.0578 109.965 29.5931 111.082 28.7682 111.905C27.9434 112.728 26.8257 113.19 25.6605 113.19Z" fill="white"/>
<path d="M115.59 91.0499V94.7599H114.01V86.3599H115.59V89.7199H119.51V86.3599H121.08V94.7599H119.51V91.0499H115.59Z" fill="white"/>
<path d="M125.37 90.5699C125.358 89.6972 125.606 88.8407 126.082 88.1092C126.558 87.3778 127.241 86.8045 128.044 86.4623C128.847 86.12 129.734 86.0243 130.591 86.1872C131.449 86.3502 132.238 86.7644 132.859 87.3773C133.481 87.9902 133.906 88.774 134.081 89.6292C134.255 90.4843 134.172 91.372 133.841 92.1795C133.509 92.987 132.946 93.6778 132.221 94.164C131.496 94.6501 130.643 94.9098 129.77 94.9099C129.19 94.9394 128.609 94.8478 128.066 94.641C127.523 94.4341 127.029 94.1165 126.615 93.7083C126.201 93.3001 125.877 92.8103 125.662 92.27C125.448 91.7297 125.349 91.1507 125.37 90.5699ZM129.77 87.5699C129.169 87.5237 128.568 87.6596 128.045 87.9599C127.523 88.2602 127.103 88.711 126.84 89.2535C126.577 89.796 126.484 90.4051 126.573 91.0013C126.661 91.5976 126.927 92.1533 127.336 92.5962C127.745 93.0391 128.278 93.3485 128.865 93.4841C129.452 93.6197 130.067 93.5753 130.629 93.3566C131.19 93.1379 131.673 92.7551 132.014 92.258C132.355 91.7609 132.538 91.1726 132.54 90.5699C132.58 90.1856 132.538 89.7973 132.416 89.4307C132.294 89.0641 132.095 88.7277 131.833 88.4439C131.571 88.1601 131.251 87.9353 130.896 87.7846C130.54 87.6339 130.156 87.5607 129.77 87.5699Z" fill="white"/>
<path d="M140.01 90.6299V94.7599H138.46V86.3599H140.14L144.32 92.4799C144.32 92.4799 144.32 91.4799 144.32 90.4799V86.3599H145.87V94.7599H144.24L139.98 88.5599C139.98 88.5599 139.98 89.6299 139.98 90.6299" fill="white"/>
<path d="M155.77 86.3599V87.6699H152.17V89.7499H155.56V91.0599H152.17V93.4399H155.87V94.7599H150.58V86.3599H155.77Z" fill="white"/>
<path d="M165.65 92.31C165.652 92.6797 165.574 93.0453 165.424 93.3828C165.273 93.7203 165.052 94.022 164.776 94.2678C164.5 94.5136 164.175 94.698 163.822 94.8087C163.47 94.9194 163.097 94.954 162.73 94.9101C162.165 94.9277 161.602 94.8192 161.083 94.5927C160.564 94.3661 160.102 94.0271 159.73 93.6L160.48 92.46C160.756 92.7909 161.097 93.0605 161.483 93.2517C161.869 93.4428 162.29 93.5513 162.72 93.57C163.5 93.57 164.04 93.19 164.04 92.46C164.04 91.73 163.6 91.58 162.88 91.29L161.57 90.7701C161.137 90.6412 160.755 90.3782 160.48 90.0189C160.205 89.6596 160.051 89.2223 160.04 88.7701C160.04 87.3101 161.19 86.3 162.95 86.3C163.422 86.2877 163.892 86.3697 164.331 86.5415C164.771 86.7132 165.172 86.9711 165.51 87.3L164.76 88.43C164.251 87.9274 163.575 87.6286 162.86 87.5901C162.16 87.5901 161.61 87.9301 161.61 88.5901C161.61 89.2501 162.14 89.4301 162.61 89.5901L164.01 90.1601C164.493 90.283 164.918 90.5673 165.217 90.9657C165.515 91.3641 165.668 91.8526 165.65 92.35" fill="white"/>
<path d="M169.021 87.6399V86.3599H175.201V87.6399H172.901V94.7599H171.331V87.6399H169.021Z" fill="white"/>
<path d="M180.75 86.3599H179.17V94.7699H180.75V86.3599Z" fill="white"/>
<path d="M188.17 86.3602C189.328 86.3082 190.464 86.6857 191.36 87.4202C191.804 87.8081 192.155 88.2908 192.387 88.8326C192.619 89.3744 192.726 89.9614 192.7 90.5502C192.726 91.1434 192.618 91.7347 192.387 92.2812C192.155 92.8278 191.804 93.3159 191.36 93.7102C190.46 94.437 189.326 94.8103 188.17 94.7602H185.48V86.3602H188.17ZM190.24 92.7302C190.525 92.4476 190.746 92.1083 190.891 91.7345C191.036 91.3607 191.1 90.9606 191.08 90.5602C191.117 90.1764 191.069 89.7893 190.939 89.4262C190.81 89.063 190.603 88.7325 190.332 88.458C190.061 88.1835 189.734 87.9717 189.372 87.8373C189.011 87.7029 188.625 87.6493 188.24 87.6802H187.07V93.4202H188.24C188.97 93.4513 189.685 93.2047 190.24 92.7302Z" fill="white"/>
<path d="M198.24 92.8198L197.5 94.7598H195.86L199.16 86.3398H200.69L204 94.7598H202.24L201.51 92.8198H198.24ZM201.15 91.5598L199.89 88.1598L198.62 91.5598H201.15Z" fill="white"/>
<path d="M210.57 86.36C211.731 86.3064 212.871 86.684 213.77 87.42C214.21 87.811 214.558 88.2943 214.79 88.8353C215.021 89.3763 215.131 89.9618 215.11 90.55C215.135 91.1431 215.028 91.7345 214.796 92.281C214.564 92.8276 214.214 93.3157 213.77 93.71C212.867 94.4383 211.729 94.8116 210.57 94.76H207.88V86.36H210.57ZM212.63 92.73C212.916 92.4489 213.139 92.1099 213.284 91.7357C213.429 91.3615 213.492 90.9606 213.47 90.56C213.506 90.1771 213.458 89.7909 213.329 89.4285C213.2 89.0661 212.994 88.7362 212.725 88.4619C212.455 88.1876 212.129 87.9755 211.769 87.8404C211.409 87.7054 211.023 87.6506 210.64 87.68H209.47V93.42H210.64C211.371 93.4562 212.087 93.209 212.64 92.73" fill="white"/>
<path d="M223.93 86.3599H225.68L227.64 89.9599L229.59 86.3599H231.35L228.42 91.2999V94.7599H226.84V91.2999L223.93 86.3599Z" fill="white"/>
<path d="M239.85 87.6399V86.3599H246.04V87.6399H243.74V94.7599H242.17V87.6399H239.85Z" fill="white"/>
<path d="M251.59 91.3499V94.7599H250V86.3599H252.71C253.462 86.3176 254.208 86.525 254.83 86.9499C255.113 87.1677 255.341 87.4482 255.497 87.7692C255.653 88.0901 255.733 88.4429 255.73 88.7999C255.771 89.3473 255.607 89.8904 255.271 90.3244C254.935 90.7584 254.45 91.0525 253.91 91.1499L256.18 94.7599H254.33L252.33 91.3499H251.59ZM253.59 89.8399C253.745 89.7234 253.871 89.5725 253.958 89.3989C254.045 89.2253 254.09 89.0339 254.09 88.8399C254.09 88.6458 254.045 88.4544 253.958 88.2809C253.871 88.1073 253.745 87.9563 253.59 87.8399C253.229 87.6157 252.802 87.5205 252.38 87.5699H251.55V90.0799H252.38C252.802 90.1203 253.225 90.0258 253.59 89.8099" fill="white"/>
<path d="M261.56 92.8198L260.83 94.7598H259.24L262.54 86.3398H264.07L267.38 94.7598H265.65L264.92 92.8198H261.56ZM264.48 91.5598L263.24 88.1598L261.97 91.5598H264.48Z" fill="white"/>
<path d="M273.89 86.3601C274.53 86.3272 275.168 86.4365 275.76 86.6801C276.105 86.8276 276.395 87.0798 276.589 87.401C276.783 87.7222 276.87 88.0962 276.84 88.4701C276.833 88.8719 276.706 89.2623 276.474 89.5905C276.242 89.9187 275.917 90.1695 275.54 90.3101C276.035 90.3598 276.494 90.5923 276.827 90.9621C277.16 91.3319 277.343 91.8125 277.34 92.3101C277.356 92.6923 277.272 93.0721 277.096 93.4121C276.921 93.7522 276.661 94.0409 276.34 94.2501C275.705 94.5897 274.989 94.7488 274.27 94.7101H271.24V86.3101L273.89 86.3601ZM274.77 89.6601C274.932 89.5523 275.061 89.4017 275.142 89.2252C275.223 89.0486 275.254 88.853 275.23 88.6601C275.23 87.9301 274.66 87.5801 273.85 87.5801H272.79V89.8401H273.79C274.136 89.8663 274.482 89.7971 274.79 89.6401M275.29 93.2701C275.442 93.1527 275.563 93.0006 275.643 92.8264C275.723 92.6523 275.76 92.4615 275.75 92.2701C275.759 92.0725 275.715 91.8761 275.624 91.7006C275.533 91.5251 275.397 91.3767 275.23 91.2701C274.893 91.0597 274.496 90.9649 274.1 91.0001H272.81V93.5001H274.17C274.558 93.5376 274.948 93.4575 275.29 93.2701Z" fill="white"/>
<path d="M283.07 92.8198L282.34 94.7598H280.69L284 86.3398H285.53L288.83 94.7598H287.1L286.37 92.8198H283.07ZM285.98 91.5598L284.73 88.1598L283.46 91.5598H285.98Z" fill="white"/>
<path d="M292.13 95.9199C292.72 95.9199 292.83 95.3899 292.83 94.6999V86.3599H294.4V94.6599C294.452 95.3057 294.294 95.9512 293.95 96.4999C293.778 96.7148 293.558 96.8864 293.308 97.001C293.058 97.1156 292.785 97.17 292.51 97.1599C292.142 97.1698 291.776 97.1122 291.43 96.9899L291.48 95.8199C291.689 95.8917 291.909 95.9256 292.13 95.9199Z" fill="white"/>
<path d="M298.69 90.5699C298.678 89.6972 298.926 88.8407 299.403 88.1092C299.879 87.3778 300.562 86.8045 301.365 86.4623C302.167 86.12 303.054 86.0243 303.911 86.1872C304.769 86.3502 305.558 86.7644 306.18 87.3773C306.801 87.9902 307.226 88.774 307.401 89.6292C307.576 90.4843 307.492 91.372 307.161 92.1795C306.83 92.987 306.266 93.6778 305.541 94.164C304.816 94.6501 303.963 94.9098 303.09 94.9099C302.51 94.9394 301.93 94.8478 301.386 94.641C300.843 94.4341 300.349 94.1165 299.935 93.7083C299.521 93.3001 299.197 92.8103 298.983 92.27C298.768 91.7297 298.669 91.1507 298.69 90.5699ZM303.09 87.5699C302.489 87.5216 301.887 87.6557 301.363 87.9547C300.84 88.2536 300.418 88.7036 300.154 89.2457C299.889 89.7879 299.795 90.3972 299.882 90.994C299.969 91.5909 300.234 92.1475 300.643 92.5914C301.051 93.0353 301.584 93.3458 302.171 93.4824C302.759 93.6189 303.374 93.5752 303.936 93.3569C304.498 93.1387 304.982 92.756 305.323 92.2588C305.665 91.7616 305.848 91.173 305.85 90.5699C305.888 90.1868 305.845 89.8 305.723 89.4348C305.601 89.0697 305.404 88.7345 305.143 88.4512C304.882 88.1679 304.565 87.9429 304.211 87.791C303.857 87.6391 303.475 87.5637 303.09 87.5699Z" fill="white"/>
<path d="M139.34 72.49L138.27 53.91H138.2L132.34 72.49H127.29L121.4 53.91H121.28L120.29 72.49H114.01L116.06 45.21H124.12L129.81 63.16H129.89L135.51 45.21H143.61L145.63 72.49H139.34Z" fill="white"/>
<path d="M152.42 50.7499C151.783 50.6918 151.177 50.4497 150.675 50.0531C150.173 49.6566 149.797 49.1227 149.593 48.5164C149.389 47.9101 149.365 47.2575 149.525 46.6381C149.685 46.0187 150.022 45.4592 150.494 45.0276C150.966 44.596 151.554 44.311 152.185 44.2073C152.816 44.1035 153.464 44.1855 154.05 44.4432C154.635 44.7009 155.133 45.1233 155.483 45.6589C155.833 46.1944 156.02 46.8202 156.02 47.4599C156.025 47.9203 155.933 48.3765 155.75 48.7988C155.567 49.2211 155.296 49.5999 154.956 49.9105C154.617 50.221 154.215 50.4563 153.778 50.601C153.341 50.7457 152.878 50.7964 152.42 50.7499ZM149.24 52.9999H155.57V72.4799H149.24V52.9999Z" fill="white"/>
<path d="M168.99 72.9201C163.65 72.9201 158.71 69.2801 158.71 62.8001C158.71 56.3201 163.71 52.6401 169.07 52.6401C174.07 52.6401 176.3 54.7001 176.3 54.7001L174.92 59.4801C173.496 58.3551 171.735 57.7422 169.92 57.7401C169.27 57.7152 168.621 57.8268 168.016 58.0677C167.412 58.3086 166.864 58.6735 166.409 59.1389C165.954 59.6043 165.602 60.1599 165.375 60.7698C165.147 61.3797 165.05 62.0305 165.09 62.6801C165.037 63.3416 165.127 64.0066 165.353 64.6303C165.58 65.2541 165.937 65.8221 166.401 66.2959C166.866 66.7698 167.426 67.1386 168.045 67.3774C168.665 67.6162 169.328 67.7194 169.99 67.6801C171.828 67.6639 173.601 66.9939 174.99 65.7901L176.49 70.5701C176.29 70.7301 174.23 72.9001 169.06 72.9001" fill="white"/>
<path d="M191.83 72.4802V62.2202C191.83 59.8502 191.52 57.7902 188.83 57.7902C186.14 57.7902 185.35 60.0002 185.35 62.8902V72.4502H179.03V45.2202H185.35V51.7002C185.35 53.7002 185.35 55.8102 185.35 55.8102C185.924 54.8085 186.761 53.9838 187.772 53.4264C188.783 52.8691 189.927 52.6005 191.08 52.6502C196.73 52.6502 198.2 56.2502 198.2 60.9902V72.4902L191.83 72.4802Z" fill="white"/>
<path d="M211.87 72.9201C205.71 72.9201 201.04 69.0801 201.04 62.8001C201.04 56.5201 205.71 52.6401 211.87 52.6401C218.03 52.6401 222.66 56.5201 222.66 62.8001C222.66 69.0801 218.04 72.9201 211.87 72.9201ZM211.87 57.6201C209.07 57.6201 207.44 59.8001 207.44 62.6801C207.44 65.5601 209.07 67.7401 211.87 67.7401C214.67 67.7401 216.3 65.5701 216.3 62.6801C216.3 59.7901 214.64 57.6201 211.87 57.6201Z" fill="white"/>
<path d="M237.17 72.4901L237.05 70.4301C236.358 71.2245 235.502 71.8587 234.54 72.2886C233.578 72.7186 232.534 72.9341 231.48 72.9201C228.04 72.9201 224.4 71.0601 224.4 66.7101C224.4 62.3601 228.4 60.9001 231.99 60.7101L236.89 60.5101V60.0701C236.89 58.0701 235.43 56.9501 232.89 56.9501C230.775 57.0125 228.711 57.6112 226.89 58.6901L225.24 54.6201C227.834 53.3318 230.685 52.648 233.58 52.6201C239.67 52.6201 243.19 55.1501 243.19 61.4801V72.4801L237.17 72.4901ZM233.81 64.1101C231.87 64.1801 230.73 65.0101 230.73 66.4801C230.73 67.9501 231.95 68.8901 233.73 68.8901C234.376 68.8864 235.01 68.7216 235.576 68.4108C236.142 68.1 236.621 67.6529 236.97 67.1101V63.9101L233.81 64.1101Z" fill="white"/>
<path d="M256.24 72.9201C250.9 72.9201 245.96 69.2801 245.96 62.8001C245.96 56.3201 250.96 52.6401 256.32 52.6401C261.32 52.6401 263.55 54.7001 263.55 54.7001L262.24 59.4801C260.817 58.353 259.055 57.7398 257.24 57.7401C256.59 57.7166 255.943 57.8293 255.34 58.0708C254.736 58.3124 254.19 58.6775 253.736 59.1427C253.282 59.608 252.93 60.163 252.704 60.7722C252.477 61.3814 252.38 62.0313 252.42 62.6801C252.366 63.3419 252.454 64.0077 252.68 64.6322C252.906 65.2567 253.263 65.8254 253.728 66.2996C254.192 66.7739 254.754 67.1426 255.374 67.3808C255.993 67.619 256.657 67.7211 257.32 67.6801C259.128 67.6515 260.869 66.9898 262.24 65.8101L263.74 70.5901C263.54 70.7501 261.49 72.9201 256.31 72.9201" fill="white"/>
<path d="M278.39 72.4802L278.24 70.4302C277.545 71.2243 276.687 71.8582 275.723 72.2881C274.76 72.718 273.715 72.9336 272.66 72.9202C269.22 72.9202 265.59 71.0602 265.59 66.7102C265.59 62.3602 269.59 60.9002 273.18 60.7102L278.08 60.5102V60.0702C278.08 58.0702 276.61 56.9502 274.08 56.9502C271.964 57.0091 269.899 57.6081 268.08 58.6902L266.42 54.5802C269.013 53.2919 271.864 52.6081 274.76 52.5802C280.84 52.5802 284.36 55.1102 284.36 61.4402V72.4402L278.39 72.4802ZM275.03 64.1102C273.1 64.1802 271.95 65.0102 271.95 66.4802C271.95 67.9502 273.18 68.8902 274.95 68.8902C275.595 68.8838 276.228 68.7179 276.793 68.4073C277.359 68.0967 277.839 67.6511 278.19 67.1102V63.9102L275.03 64.1102ZM276.73 50.9402H272.24L275.39 45.2202H280.77L276.73 50.9402Z" fill="white"/>
<path d="M301.16 72.48V62.33C301.16 59.76 300.76 57.82 298.16 57.82C295.56 57.82 294.68 60.03 294.68 62.82V72.46H288.35V53H294.68V55.8H294.76C295.33 54.8135 296.156 53.9992 297.15 53.4431C298.145 52.8869 299.271 52.6094 300.41 52.64C306.06 52.64 307.52 56.28 307.52 60.98V72.48H301.16Z" fill="white"/>
</svg>
