<svg width="229" height="370" viewBox="0 0 229 370" fill="#4A001F" xmlns="http://www.w3.org/2000/svg">
<path d="M150.91 160.42L150.7 160.55L150.5 160.7L150.41 160.8L150.22 161L150.11 161.17C150.061 161.236 150.018 161.306 149.98 161.38L149.89 161.58C149.863 161.648 149.839 161.719 149.82 161.79C149.811 161.863 149.811 161.937 149.82 162.01C149.816 162.083 149.816 162.157 149.82 162.23C149.815 162.307 149.815 162.383 149.82 162.46C149.816 162.533 149.816 162.607 149.82 162.68C149.815 162.757 149.815 162.833 149.82 162.91C149.816 162.98 149.816 163.05 149.82 163.12C149.846 163.202 149.876 163.282 149.91 163.36C149.91 163.41 149.91 163.45 149.96 163.49V163.54C150.049 163.703 150.152 163.857 150.27 164L159.86 174.79L159.97 174.89C160.077 174.991 160.19 175.085 160.31 175.17L160.47 175.26C160.596 175.327 160.726 175.384 160.86 175.43H161.01C161.198 175.473 161.389 175.496 161.58 175.5C161.738 175.499 161.896 175.482 162.05 175.45H162.19C162.307 175.42 162.421 175.38 162.53 175.33H162.62C165.884 173.771 169.427 172.88 173.04 172.71C176.652 172.889 180.193 173.779 183.46 175.33H183.56C183.64 175.369 183.724 175.399 183.81 175.42L183.98 175.47H184.25H184.41H184.66C184.734 175.475 184.807 175.475 184.88 175.47H185.12L185.33 175.4L185.55 175.3L185.75 175.19L185.94 175.06C186.012 175.002 186.079 174.938 186.14 174.87L186.24 174.78L195.8 164.03V163.98C195.8 163.92 195.89 163.85 195.94 163.78L196.07 163.58V163.52C196.07 163.52 196.07 163.44 196.12 163.39C196.159 163.313 196.189 163.233 196.21 163.15C196.214 163.083 196.214 163.017 196.21 162.95C196.216 162.867 196.216 162.783 196.21 162.7C196.215 162.63 196.215 162.56 196.21 162.49C196.216 162.413 196.216 162.337 196.21 162.26V162.05C196.195 161.969 196.175 161.889 196.15 161.81C196.132 161.745 196.108 161.682 196.08 161.62L195.99 161.4L195.87 161.21L195.74 161.03C195.69 160.96 195.63 160.9 195.57 160.83L195.47 160.73H195.42C195.358 160.674 195.291 160.624 195.22 160.58L195.02 160.45H194.97C194.52 160.23 183.84 154.95 172.91 154.95C161.98 154.95 151.3 160.23 150.85 160.45M190.09 163.36L183.86 170.4C180.425 168.945 176.75 168.138 173.02 168.02C169.288 168.14 165.61 168.947 162.17 170.4L155.86 163.33C159.56 161.85 166.33 159.57 173 159.57C179.67 159.57 186.43 161.85 190.13 163.33" fill="#6F1D46"/>
<path d="M182.66 178.79C179.643 177.346 176.363 176.532 173.02 176.4C169.675 176.531 166.391 177.345 163.37 178.79C162.815 179.067 162.392 179.554 162.195 180.142C161.998 180.731 162.043 181.374 162.32 181.93C162.598 182.486 163.084 182.908 163.673 183.105C164.262 183.302 164.905 183.257 165.46 182.98C167.83 181.851 170.399 181.202 173.02 181.07C175.638 181.203 178.204 181.852 180.57 182.98C180.882 183.131 181.224 183.213 181.57 183.22C182.1 183.229 182.617 183.057 183.037 182.734C183.457 182.41 183.754 181.954 183.881 181.439C184.007 180.925 183.956 180.382 183.734 179.901C183.512 179.42 183.134 179.028 182.66 178.79Z" fill="#6F1D46"/>
<path d="M149.68 96.0099C149.676 96.0865 149.676 96.1633 149.68 96.2399C149.676 96.3098 149.676 96.38 149.68 96.4499C149.706 96.5315 149.736 96.6116 149.77 96.6899C149.77 96.6899 149.77 96.7799 149.82 96.8199V96.8799C149.854 96.9523 149.898 97.0196 149.95 97.0799C149.988 97.1526 150.035 97.2199 150.09 97.2799V97.3299L159.86 108.08C159.894 108.119 159.931 108.156 159.97 108.19C160.074 108.294 160.188 108.388 160.31 108.47L160.47 108.56C160.595 108.626 160.725 108.68 160.86 108.72H161.01C161.196 108.771 161.388 108.798 161.58 108.8C161.737 108.815 161.894 108.815 162.05 108.8H162.19C162.307 108.77 162.421 108.73 162.53 108.68H162.62C165.884 107.121 169.427 106.23 173.04 106.06C176.652 106.239 180.193 107.129 183.46 108.68H183.56L183.81 108.77L183.98 108.82H184.25H184.41H184.66C184.734 108.825 184.807 108.825 184.88 108.82H185.12L185.33 108.75L185.55 108.65L185.75 108.54C185.818 108.499 185.881 108.452 185.94 108.4C186.014 108.348 186.081 108.288 186.14 108.22L186.24 108.13L195.76 97.4199C195.887 97.2802 195.992 97.1217 196.07 96.9499C196.07 96.9499 196.07 96.8699 196.12 96.8199C196.159 96.7434 196.189 96.6629 196.21 96.5799C196.214 96.5133 196.214 96.4465 196.21 96.3799C196.21 96.2899 196.21 96.2099 196.21 96.1299C196.215 96.06 196.215 95.9898 196.21 95.9199C196.215 95.84 196.215 95.7598 196.21 95.6799V95.4799C196.195 95.3988 196.175 95.3186 196.15 95.2399C196.131 95.175 196.108 95.1115 196.08 95.0499L195.99 94.8299L195.87 94.6399L195.74 94.4599C195.689 94.3888 195.632 94.3219 195.57 94.2599L195.47 94.1599H195.42C195.358 94.1044 195.291 94.0542 195.22 94.0099L195.02 93.8799H194.97C194.52 93.6499 183.84 88.3799 172.91 88.3799C161.98 88.3799 151.3 93.6499 150.85 93.8799L150.64 94.0099L150.44 94.1599L150.35 94.2499L150.16 94.4599L150.05 94.6299C150.001 94.6961 149.958 94.7664 149.92 94.8399L149.83 95.0399C149.803 95.1083 149.779 95.1785 149.76 95.2499C149.75 95.3229 149.75 95.3969 149.76 95.4699C149.755 95.5431 149.755 95.6167 149.76 95.6899C149.755 95.7631 149.755 95.8366 149.76 95.9099C149.755 95.9865 149.755 96.0633 149.76 96.1399M190.23 96.7599L183.86 103.7C180.425 102.245 176.749 101.438 173.02 101.32C169.288 101.44 165.61 102.247 162.17 103.7L155.86 96.6299C159.56 95.1499 166.33 92.8599 173 92.8599C179.67 92.8599 186.43 95.1499 190.13 96.6299" fill="#6F1D46"/>
<path d="M165.46 116.25C167.83 115.121 170.399 114.472 173.02 114.34C175.638 114.473 178.204 115.122 180.57 116.25C180.882 116.401 181.224 116.483 181.57 116.49C182.097 116.489 182.608 116.311 183.02 115.985C183.433 115.658 183.723 115.202 183.845 114.69C183.966 114.177 183.911 113.639 183.689 113.162C183.467 112.685 183.09 112.297 182.62 112.06C179.603 110.616 176.323 109.802 172.98 109.67C169.635 109.801 166.351 110.615 163.33 112.06C162.775 112.337 162.352 112.824 162.155 113.412C161.958 114.001 162.003 114.644 162.28 115.2C162.558 115.756 163.044 116.178 163.633 116.375C164.222 116.572 164.865 116.527 165.42 116.25" fill="#6F1D46"/>
<path d="M122.86 127.44L122.66 127.57L122.45 127.72C122.417 127.751 122.387 127.784 122.36 127.82C122.291 127.882 122.228 127.949 122.17 128.02L122.05 128.19L121.93 128.4C121.894 128.464 121.863 128.531 121.84 128.6C121.809 128.668 121.782 128.738 121.76 128.81C121.76 128.88 121.76 128.96 121.76 129.03C121.755 129.103 121.755 129.177 121.76 129.25C121.755 129.327 121.755 129.403 121.76 129.48C121.755 129.553 121.755 129.627 121.76 129.7C121.755 129.777 121.755 129.853 121.76 129.93C121.772 130.001 121.788 130.071 121.81 130.14C121.831 130.223 121.861 130.303 121.9 130.38C121.9 130.38 121.9 130.47 121.95 130.51V130.56C122.031 130.727 122.135 130.882 122.26 131.02L131.75 141.79C131.791 141.818 131.828 141.852 131.86 141.89C131.969 141.992 132.086 142.085 132.21 142.17L132.37 142.26C132.494 142.329 132.625 142.385 132.76 142.43L132.91 142.48C133.097 142.523 133.288 142.546 133.48 142.55C133.636 142.565 133.793 142.565 133.95 142.55H134.09C134.206 142.52 134.32 142.48 134.43 142.43H134.52C137.78 140.87 141.319 139.979 144.93 139.81C148.542 139.985 152.084 140.876 155.35 142.43H155.46C155.54 142.469 155.623 142.499 155.71 142.52H155.87H156.16H156.3H156.57C156.636 142.526 156.703 142.526 156.77 142.52L157.03 142.47L157.22 142.4L157.45 142.3L157.65 142.19L157.84 142.06C157.911 142.002 157.978 141.938 158.04 141.87L158.14 141.78L167.69 131.03C167.756 130.958 167.813 130.877 167.86 130.79C167.907 130.722 167.95 130.652 167.99 130.58V130.52C167.99 130.52 167.99 130.44 167.99 130.39C168.024 130.312 168.054 130.232 168.08 130.15C168.08 130.08 168.08 130.01 168.13 129.95C168.18 129.89 168.13 129.79 168.13 129.7C168.135 129.63 168.135 129.56 168.13 129.49C168.135 129.413 168.135 129.337 168.13 129.26V129.05C168.114 128.969 168.094 128.889 168.07 128.81C168.051 128.745 168.027 128.682 168 128.62C167.97 128.545 167.937 128.471 167.9 128.4C167.869 128.333 167.832 128.27 167.79 128.21L167.66 128.03C167.605 127.958 167.545 127.892 167.48 127.83C167.452 127.794 167.422 127.761 167.39 127.73C167.326 127.672 167.255 127.622 167.18 127.58C167.123 127.531 167.059 127.49 166.99 127.46H166.93C166.48 127.24 155.81 121.96 144.87 121.96C133.93 121.96 123.26 127.24 122.81 127.46M162.05 130.37L155.86 137.42C152.42 135.967 148.742 135.16 145.01 135.04C141.277 135.16 137.599 135.967 134.16 137.42L127.86 130.35C131.56 128.87 138.33 126.59 144.99 126.59C151.65 126.59 158.43 128.87 162.12 130.35" fill="#6F1D46"/>
<path d="M154.6 145.79C151.582 144.347 148.302 143.534 144.96 143.4C141.618 143.538 138.339 144.351 135.32 145.79C135.044 145.927 134.799 146.117 134.597 146.349C134.396 146.581 134.242 146.851 134.144 147.142C134.047 147.434 134.008 147.742 134.029 148.049C134.051 148.355 134.132 148.655 134.27 148.93C134.407 149.205 134.597 149.45 134.829 149.652C135.061 149.854 135.331 150.008 135.622 150.105C135.914 150.203 136.222 150.242 136.528 150.22C136.835 150.199 137.134 150.117 137.41 149.98C139.776 148.852 142.342 148.203 144.96 148.07C147.581 148.204 150.149 148.853 152.52 149.98C152.832 150.132 153.173 150.213 153.52 150.22C154.046 150.219 154.557 150.041 154.969 149.715C155.382 149.388 155.673 148.932 155.794 148.42C155.916 147.907 155.861 147.369 155.639 146.892C155.416 146.415 155.04 146.027 154.57 145.79" fill="#6F1D46"/>
<path d="M192.13 286.3C191.8 286.04 184.05 280.09 176 280.09C169.88 280.09 164 283.52 161.3 285.28C158.65 283.52 152.72 280.09 146.61 280.09C138.55 280.09 130.8 286.04 130.48 286.3C130.099 286.6 129.82 287.011 129.682 287.476C129.544 287.942 129.555 288.438 129.712 288.898C129.869 289.357 130.165 289.756 130.559 290.039C130.953 290.323 131.425 290.477 131.91 290.48C132.431 290.48 132.938 290.308 133.35 289.99C133.41 289.93 140.14 284.76 146.61 284.76C153.08 284.76 159.8 289.94 159.87 289.99L160.05 290.11L160.2 290.2L160.45 290.31L160.63 290.37C160.709 290.395 160.789 290.415 160.87 290.43H161.07H161.53H161.73C161.815 290.415 161.898 290.395 161.98 290.37L162.16 290.31L162.4 290.2L162.56 290.1L162.74 289.99C162.8 289.94 169.56 284.76 176 284.76C182.44 284.76 189.19 289.94 189.26 289.99C189.752 290.336 190.358 290.48 190.953 290.391C191.548 290.303 192.085 289.988 192.455 289.513C192.824 289.039 192.996 288.44 192.936 287.842C192.875 287.244 192.587 286.691 192.13 286.3Z" fill="#6F1D46"/>
<path d="M129.61 277.06V277.24C129.61 277.32 129.66 277.4 129.68 277.47L129.76 277.68C129.79 277.742 129.823 277.802 129.86 277.86C129.901 277.94 129.948 278.017 130 278.09V278.14C130 278.14 130.05 278.14 130.07 278.21L130.33 278.47L130.45 278.57C130.552 278.652 130.663 278.722 130.78 278.78L130.87 278.83C131.183 278.977 131.524 279.053 131.87 279.05H132.1H132.27C132.355 279.036 132.438 279.016 132.52 278.99L132.67 278.94L132.91 278.84L133.04 278.77L133.26 278.63C133.33 278.57 140.09 273.4 146.53 273.4C152.97 273.4 159.72 278.57 159.79 278.63H159.84L160.09 278.79L160.2 278.85L160.48 278.95L160.62 279H160.67C160.75 279.005 160.83 279.005 160.91 279H161.08H161.6L161.79 278.95L162 278.89L162.19 278.8L162.31 278.74H162.37C162.439 278.71 162.503 278.669 162.56 278.62H162.62C162.68 278.57 169.41 273.4 175.88 273.4C182.35 273.4 189.07 278.57 189.14 278.63C189.225 278.695 189.315 278.752 189.41 278.8L189.53 278.86C189.628 278.906 189.728 278.946 189.83 278.98H189.96C190.058 279.006 190.159 279.023 190.26 279.03H190.42H190.52H190.71H190.87C190.969 279.021 191.066 279.001 191.16 278.97L191.31 278.92L191.58 278.81L191.72 278.73C191.806 278.682 191.886 278.625 191.96 278.56L192.08 278.46C192.158 278.388 192.232 278.312 192.3 278.23L192.37 278.16C192.438 278.078 192.495 277.987 192.54 277.89C192.54 277.89 192.54 277.8 192.62 277.75L192.71 277.5L192.77 277.31C192.775 277.237 192.775 277.163 192.77 277.09C192.775 277.01 192.775 276.93 192.77 276.85C192.77 276.85 192.77 276.8 192.77 276.77V242.43C192.775 242.384 192.775 242.337 192.77 242.29C192.775 242.207 192.775 242.123 192.77 242.04C192.776 241.974 192.776 241.907 192.77 241.84C192.751 241.759 192.728 241.679 192.7 241.6C192.7 241.54 192.7 241.48 192.62 241.41L192.5 241.19L192.39 241.03C192.39 240.96 192.28 240.9 192.23 240.84C192.182 240.785 192.128 240.735 192.07 240.69L191.96 240.58C191.63 240.33 183.88 234.37 175.83 234.37C169.72 234.37 163.83 237.8 161.13 239.56C158.48 237.8 152.55 234.37 146.44 234.37C138.38 234.37 130.63 240.37 130.31 240.58L130.18 240.7C130.132 240.738 130.088 240.782 130.05 240.83C129.981 240.899 129.918 240.972 129.86 241.05L129.77 241.18C129.717 241.263 129.671 241.35 129.63 241.44L129.57 241.58C129.57 241.67 129.51 241.77 129.48 241.86V242.02C129.47 242.12 129.47 242.22 129.48 242.32C129.475 242.357 129.475 242.394 129.48 242.43V276.79C129.475 276.887 129.475 276.984 129.48 277.08M188.22 243.65V272.44C185.15 270.7 180.56 268.68 175.87 268.68C171.18 268.68 166.59 270.68 163.51 272.44V243.63C165.56 242.24 170.81 239.05 175.87 239.05C180.93 239.05 186.17 242.24 188.22 243.63M158.83 243.63V272.42C155.76 270.68 151.18 268.66 146.48 268.66C141.78 268.66 137.2 270.66 134.12 272.42V243.63C136.17 242.24 141.42 239.05 146.48 239.05C151.54 239.05 156.79 242.24 158.83 243.63Z" fill="#6F1D46"/>
<path d="M133.25 51.1901C127.81 39.1901 121.78 28.05 114.55 28.05C107.32 28.05 101.29 39.1701 95.8599 51.1901L94.8599 53.25C92.2899 58.7001 89.6299 64.3301 89.6299 70.1501C89.6299 74.0801 93.1999 77.8001 96.9799 77.8001C98.3899 77.8001 100.33 77.0601 103.92 75.6601C107.33 74.3201 112.01 72.49 114.51 72.49C117.01 72.49 121.68 74.3201 125.09 75.6601C128.68 77.0601 130.62 77.8001 132.03 77.8001C135.81 77.8001 139.38 74.0801 139.38 70.1501C139.38 64.3301 136.72 58.7001 134.15 53.25L133.25 51.1901ZM132.09 73.1201C130.304 72.649 128.555 72.044 126.86 71.31C122.66 69.67 117.92 67.7901 114.55 67.7901C111.18 67.7901 106.44 69.64 102.26 71.28C100.56 72.01 98.8082 72.6149 97.0199 73.0901C96.3031 72.9615 95.6502 72.5958 95.1661 72.0518C94.6819 71.5078 94.3945 70.8169 94.3499 70.0901C94.3499 65.3201 96.6699 60.4001 99.1299 55.18L100.13 53.0601C102.41 48.0601 109.36 32.6701 114.57 32.6701C119.78 32.6701 126.72 48.0201 129.01 53.0601L130.01 55.18C132.47 60.4001 134.79 65.3201 134.79 70.0901C134.746 70.8141 134.462 71.5028 133.982 72.0464C133.501 72.5901 132.853 72.9574 132.14 73.0901" fill="#6F1D46"/>
<path d="M82.7202 70.73C83.3408 70.73 83.936 70.4835 84.3748 70.0447C84.8137 69.6058 85.0602 69.0107 85.0602 68.39C85.0602 67.7694 84.8137 67.1743 84.3748 66.7354C83.936 66.2966 83.3408 66.05 82.7202 66.05H21.0402C20.4196 66.05 19.8244 66.2966 19.3856 66.7354C18.9467 67.1743 18.7002 67.7694 18.7002 68.39V306.84C18.7002 312.15 22.2902 316.68 28.1802 318.7L94.8002 337.61C100.7 339.28 107.49 341.56 113.13 345.88C113.245 345.97 113.369 346.047 113.5 346.11H113.6C113.715 346.166 113.836 346.21 113.96 346.24H114.08C114.235 346.272 114.392 346.289 114.55 346.29C114.708 346.288 114.865 346.272 115.02 346.24H115.13C115.255 346.212 115.376 346.168 115.49 346.11H115.59C115.724 346.047 115.852 345.97 115.97 345.88C121.61 341.56 128.4 339.27 134.3 337.61L201.04 318.66C206.81 316.66 210.4 312.15 210.4 306.84V68.39C210.4 67.7694 210.154 67.1743 209.715 66.7354C209.276 66.2966 208.681 66.05 208.06 66.05H146.37C145.75 66.05 145.154 66.2966 144.716 66.7354C144.277 67.1743 144.03 67.7694 144.03 68.39C144.03 69.0107 144.277 69.6058 144.716 70.0447C145.154 70.4835 145.75 70.73 146.37 70.73H205.72V201.64H116.86V192.36C116.955 191.976 116.955 191.574 116.86 191.19V79.63C116.86 79.0094 116.614 78.4143 116.175 77.9754C115.736 77.5366 115.141 77.29 114.52 77.29C113.9 77.29 113.304 77.5366 112.866 77.9754C112.427 78.4143 112.18 79.0094 112.18 79.63V117.79C111.63 118.41 111.01 119.08 110.29 119.79C102.6 127.67 96.424 136.897 92.0702 147.01C85.4902 134.16 81.9602 127.89 80.4602 126.39C79.6302 125.56 78.8402 124.85 78.0902 124.22L78.0202 124.17C76.2068 122.585 74.1506 121.302 71.9302 120.37V120.27C71.9701 120.032 71.9701 119.788 71.9302 119.55C74.2823 119.543 76.6195 119.176 78.8602 118.46L80.8602 117.79L78.7702 107.61L81.7002 103.84L80.7802 102.44C80.5602 102.11 76.6102 96.09 73.4902 91.86C72.4902 90.46 71.4902 89.27 70.8502 88.54C67.0702 84.54 58.6902 85.44 52.5402 90.61C43.9802 97.81 46.6802 109.06 49.3302 114.04C48.4906 113.939 47.6631 113.755 46.8602 113.49C44.9793 112.952 43.1919 112.129 41.5602 111.05C41.0623 110.721 40.4573 110.594 39.8692 110.697C39.2811 110.799 38.7542 111.122 38.3965 111.6C38.0387 112.077 37.8771 112.674 37.9447 113.267C38.0123 113.86 38.3041 114.405 38.7602 114.79C40.8227 116.218 43.1067 117.296 45.5202 117.98C46.0902 118.16 46.6202 118.3 47.1302 118.41C43.8002 119.18 39.9902 120.62 37.3002 123.32C33.8602 126.75 27.4602 135.2 23.3802 140.73V70.73H82.7202ZM37.8602 150.61L41.6102 165.61C39.8402 169.27 32.4502 184.99 28.6102 200.77C28.5556 201.054 28.5556 201.346 28.6102 201.63H23.4102V169.05L37.8602 150.61ZM52.7702 122.24L62.2202 146.09V146.91C53.9202 140.37 49.7002 127.91 48.2802 122.91C49.7599 122.585 51.2601 122.361 52.7702 122.24ZM74.7702 174.92C73.2776 173.629 71.9357 172.173 70.7702 170.58L73.6202 169.91C76.2208 169.345 78.7908 168.647 81.3202 167.82C79.2756 170.314 77.0851 172.685 74.7602 174.92M66.8602 173.12C68.1582 174.946 69.6539 176.623 71.3202 178.12C69.9069 179.373 68.4202 180.597 66.8602 181.79V173.12ZM63.1002 160.36C64.5702 159.36 65.8002 159.18 66.7502 159.78C67.3102 160.184 67.7614 160.721 68.0633 161.342C68.3652 161.964 68.5084 162.65 68.4802 163.34C68.1069 164.713 67.209 165.884 65.9802 166.6C65.851 166.671 65.7273 166.751 65.6102 166.84C64.5983 167.537 63.4237 167.96 62.2002 168.07C61.1202 168.07 60.4902 167.13 59.5802 165.19L59.3502 164.7C58.9402 163.52 59.3502 162.94 63.1502 160.36M63.1502 189.86C63.2216 189.963 63.3019 190.061 63.3902 190.15L74.8602 201.64H42.0602C47.7202 195.27 52.9202 193.56 57.5402 192.04C59.4577 191.47 61.3241 190.741 63.1202 189.86M112.21 206.32V251.68H99.7102L97.0102 218.79V218.64C97.0159 218.574 97.0159 218.507 97.0102 218.44C96.9895 218.345 96.9628 218.252 96.9302 218.16L96.8702 218.02C96.8247 217.916 96.7712 217.816 96.7102 217.72V217.65C96.6422 217.55 96.5652 217.456 96.4802 217.37L96.4202 217.31C96.3441 217.232 96.2603 217.162 96.1702 217.1L96.0502 217.02C95.977 216.971 95.9001 216.927 95.8202 216.89L95.6202 216.8L95.4402 216.74L95.1602 216.68H94.9802H87.6102H87.4102L87.1602 216.74L86.8602 216.79L86.6802 216.87L86.4302 217.01L86.3302 217.08C86.2358 217.148 86.1457 217.221 86.0602 217.3V217.36C85.9752 217.446 85.8982 217.54 85.8302 217.64L85.7702 217.72C85.711 217.813 85.6575 217.91 85.6102 218.01V218.15L85.5202 218.42V218.63C85.5155 218.68 85.5155 218.73 85.5202 218.78L82.8202 251.7H70.1302V239.99C70.1302 239.99 70.1302 239.89 70.1302 239.84V239.58C70.1338 239.507 70.1338 239.433 70.1302 239.36C70.1114 239.289 70.088 239.218 70.0602 239.15C70.0277 239.068 69.991 238.988 69.9502 238.91C69.9261 238.869 69.906 238.825 69.8902 238.78C69.8902 238.71 69.7902 238.64 69.7402 238.57L69.6002 238.41C69.5551 238.358 69.5049 238.311 69.4502 238.27L69.2602 238.11C69.207 238.071 69.15 238.038 69.0902 238.01L68.8702 237.89L68.5602 237.79L68.3102 237.71H68.1302H67.8402H67.6602C67.5703 237.705 67.4801 237.705 67.3902 237.71H67.1802L66.9602 237.78C66.8767 237.809 66.7963 237.846 66.7202 237.89L66.5902 237.95L46.7502 249.85V239.99C46.7502 239.99 46.7502 239.89 46.7502 239.84C46.7545 239.753 46.7545 239.667 46.7502 239.58C46.7372 239.506 46.7205 239.432 46.7002 239.36C46.6814 239.289 46.658 239.218 46.6302 239.15C46.5977 239.068 46.561 238.988 46.5202 238.91L46.4602 238.78C46.4117 238.706 46.3583 238.636 46.3002 238.57C46.2625 238.512 46.2189 238.459 46.1702 238.41L46.0002 238.26L45.8202 238.11C45.7638 238.071 45.7035 238.037 45.6402 238.01L45.4302 237.89L45.2402 237.82L45.0002 237.75H44.8202H44.5402H44.3602C44.2669 237.745 44.1735 237.745 44.0802 237.75H43.8702L43.6502 237.82C43.5675 237.851 43.4873 237.887 43.4102 237.93L43.2802 237.99L23.4502 249.89V206.32H112.21ZM29.5802 314.24C26.5802 313.24 23.3802 310.73 23.3802 306.84V255.34L42.0802 244.12V254.01C42.0802 254.01 42.0802 254.11 42.0802 254.16C42.0753 254.243 42.0753 254.327 42.0802 254.41C42.0921 254.488 42.1088 254.564 42.1302 254.64C42.149 254.711 42.1724 254.782 42.2002 254.85C42.2327 254.932 42.2694 255.012 42.3102 255.09L42.3702 255.22C42.4641 255.378 42.5784 255.522 42.7102 255.65L42.8602 255.79C42.9692 255.891 43.0901 255.978 43.2202 256.05L43.3602 256.13C43.4826 256.19 43.6096 256.24 43.7402 256.28H43.8702C44.0504 256.324 44.2348 256.347 44.4202 256.35C44.6056 256.348 44.7901 256.324 44.9702 256.28L45.1102 256.23C45.2614 256.191 45.4062 256.13 45.5402 256.05H45.6202L65.4502 244.15V254.04C65.4502 254.661 65.6967 255.256 66.1356 255.695C66.5744 256.133 67.1696 256.38 67.7902 256.38H84.7902C84.9448 256.379 85.0989 256.362 85.2502 256.33H85.4002L85.6702 256.25L85.8502 256.16L86.0602 256.04L86.2202 255.92L86.4102 255.77L86.5302 255.63L86.6902 255.43C86.7293 255.381 86.7628 255.327 86.7902 255.27C86.8398 255.202 86.8802 255.128 86.9102 255.05C86.9378 254.992 86.9612 254.932 86.9802 254.87C87.0113 254.792 87.038 254.711 87.0602 254.63V254.43C87.0658 254.377 87.0658 254.323 87.0602 254.27L89.8602 221.29H92.5602L95.2702 254.2C95.2646 254.253 95.2646 254.307 95.2702 254.36C95.2654 254.427 95.2654 254.493 95.2702 254.56C95.2924 254.641 95.319 254.722 95.3502 254.8C95.3692 254.862 95.3926 254.922 95.4202 254.98C95.4502 255.058 95.4906 255.132 95.5402 255.2C95.5676 255.257 95.6011 255.311 95.6402 255.36C95.6402 255.43 95.7402 255.49 95.7902 255.56C95.8386 255.602 95.8822 255.649 95.9202 255.7L96.1102 255.85L96.2702 255.97C96.3367 256.016 96.4069 256.056 96.4802 256.09L96.6502 256.18L96.9302 256.26H97.0802C97.2315 256.292 97.3856 256.309 97.5402 256.31H112.19V339.58C107.124 336.703 101.696 334.517 96.0502 333.08L29.5802 314.24ZM205.72 206.32V306.84C205.72 310.72 202.51 313.21 199.64 314.21L133.03 333.11C127.374 334.551 121.936 336.74 116.86 339.62V206.32H205.72ZM80.5102 201.64C80.4934 201.04 80.2505 200.469 79.8302 200.04L67.2402 187.42C69.7302 185.57 72.3702 183.42 74.9902 181.08C79.2702 184.133 83.8913 186.677 88.7602 188.66C100.52 193.61 107.35 194.95 111.29 194.95C111.62 194.95 111.92 194.95 112.21 194.95V201.67L80.5102 201.64ZM112.21 124.64V190.2C110.01 190.4 104.05 190.02 90.5702 184.35C86.3132 182.597 82.2539 180.398 78.4602 177.79C84.8502 171.53 90.6102 164.26 93.0302 157.35C99.2902 139.49 107.03 130.27 112.21 124.61M89.7602 152.73C89.3702 153.73 88.9902 154.73 88.6202 155.83C88.1238 157.208 87.522 158.545 86.8202 159.83C81.9902 163.14 78.4502 164 72.8202 165.32C72.9678 164.898 73.0749 164.463 73.1402 164.02C73.34 162.047 72.8603 160.064 71.7802 158.4L83.4502 151.07C83.9806 150.74 84.3582 150.212 84.4998 149.604C84.6413 148.995 84.5354 148.355 84.2052 147.825C83.875 147.295 83.3476 146.917 82.7391 146.775C82.1305 146.634 81.4906 146.74 80.9602 147.07L68.0402 155.19C67.6562 155.056 67.2614 154.956 66.8602 154.89V153.79C73.8602 146.97 76.8602 136.95 78.0902 131.05C79.5502 133.32 82.7402 139 89.7402 152.75M74.0802 127C73.5902 130.26 71.8402 139.35 66.8802 146.53V145.87L71.0002 125.07C72.0868 125.612 73.1182 126.259 74.0802 127ZM75.3902 114.53C72.3902 115.09 66.8602 115.44 63.6002 111.27C63.4111 111.028 63.1761 110.825 62.9087 110.674C62.6413 110.522 62.3466 110.425 62.0416 110.387C61.7365 110.35 61.4271 110.372 61.1309 110.454C60.8347 110.536 60.5575 110.676 60.3152 110.865C60.0729 111.054 59.8702 111.289 59.7188 111.557C59.5673 111.824 59.47 112.119 59.4323 112.424C59.3947 112.729 59.4176 113.038 59.4996 113.334C59.5816 113.631 59.7211 113.908 59.9102 114.15C61.804 116.585 64.4702 118.302 67.4702 119.02C67.4263 119.133 67.3928 119.251 67.3702 119.37L63.7502 137.62L56.4902 119.01C56.4902 119.01 56.4902 119.01 56.4902 118.95C56.4902 118.89 54.8702 114.4 59.0102 105.27C61.6402 99.48 67.8402 96.83 70.6502 95.9C72.4802 98.46 74.5602 101.52 75.9502 103.61L73.7502 106.44L75.3902 114.53ZM55.5002 94.15C60.2702 90.15 65.8102 90.01 67.3802 91.69L67.6502 91.99C63.8002 93.5 57.6502 96.82 54.7302 103.34C53.8129 105.343 53.0572 107.416 52.4702 109.54C51.2302 105.94 49.8402 98.91 55.4702 94.15M23.4302 148.56C23.5502 148.39 35.6802 131.56 40.6002 126.56C41.5574 125.664 42.6597 124.937 43.8602 124.41C45.6202 130.59 50.9602 145.9 62.2502 152.56V155.56C61.5735 155.863 60.9244 156.225 60.3102 156.64C57.1402 158.76 53.2002 161.4 55.0002 166.38L55.3702 167.17C56.2102 168.96 57.9502 172.66 62.1402 172.74H62.2502V184.96C60.3482 186.128 58.2867 187.014 56.1302 187.59C50.8202 189.33 44.2202 191.5 37.1802 200.21C36.856 200.613 36.6765 201.113 36.6702 201.63H33.2702C37.4202 184.63 46.1202 167.09 46.2102 166.92L46.2602 166.8C46.2913 166.725 46.318 166.648 46.3402 166.57L46.4002 166.35C46.4051 166.277 46.4051 166.203 46.4002 166.13C46.4051 166.05 46.4051 165.97 46.4002 165.89C46.4052 165.82 46.4052 165.75 46.4002 165.68C46.405 165.59 46.405 165.5 46.4002 165.41C46.4002 165.41 46.4002 165.34 46.4002 165.31L41.2902 144.83V144.77C41.2708 144.68 41.2406 144.593 41.2002 144.51C41.2002 144.45 41.1502 144.39 41.1302 144.34C41.0894 144.263 41.0426 144.19 40.9902 144.12C40.9594 144.057 40.9189 144 40.8702 143.95C40.8256 143.889 40.7754 143.832 40.7202 143.78C40.6685 143.722 40.6116 143.668 40.5502 143.62L40.4902 143.56L40.3702 143.48L40.1802 143.36L39.9402 143.25L39.7702 143.18L39.5002 143.11H39.3402C39.2438 143.1 39.1466 143.1 39.0502 143.11H38.8902L38.5802 143.16H38.4802H38.4302L38.1402 143.27L38.0002 143.33C37.9114 143.37 37.8275 143.421 37.7502 143.48L37.6002 143.58L37.4202 143.75C37.3652 143.798 37.3149 143.852 37.2702 143.91L37.2102 143.97L23.3802 161.48V148.62V148.56" fill="#6F1D46"/>
<path d="M226.76 47.3501H140.27C139.649 47.3501 139.054 47.5966 138.615 48.0355C138.177 48.4743 137.93 49.0695 137.93 49.6901C137.93 50.3107 138.177 50.9059 138.615 51.3447C139.054 51.7836 139.649 52.0301 140.27 52.0301H224.42V306.84C224.42 318.56 216.29 328.22 202.74 332.65L137.28 351.35C124.56 355.26 117.75 360.61 114.59 363.8C111.42 360.61 104.59 355.26 91.9 351.35L26.44 332.67C12.81 328.22 4.67 318.57 4.67 306.84V52.0301H88.86C89.4806 52.0301 90.0758 51.7836 90.5146 51.3447C90.9535 50.9059 91.2 50.3107 91.2 49.6901C91.2 49.0695 90.9535 48.4743 90.5146 48.0355C90.0758 47.5966 89.4806 47.3501 88.86 47.3501H2.34C2.03271 47.3501 1.72842 47.4106 1.44452 47.5282C1.16062 47.6458 0.902659 47.8182 0.685369 48.0355C0.46808 48.2528 0.295718 48.5107 0.178122 48.7946C0.0605256 49.0785 0 49.3828 0 49.6901V306.84C0 320.48 9.57 332.08 25.07 337.14L90.5 355.84C102.4 359.49 109.76 364.91 112.69 368.75V368.8C112.769 368.894 112.856 368.981 112.95 369.06C112.95 369.06 113.02 369.14 113.06 369.17C113.177 369.253 113.301 369.326 113.43 369.39H113.53C113.645 369.447 113.766 369.49 113.89 369.52H114.01C114.165 369.552 114.322 369.569 114.48 369.57C114.638 369.568 114.795 369.552 114.95 369.52H115.06C115.188 369.492 115.312 369.448 115.43 369.39H115.52C115.65 369.329 115.774 369.255 115.89 369.17L116.02 369.05C116.108 368.974 116.188 368.891 116.26 368.8L116.31 368.75C119.23 364.91 126.59 359.5 138.49 355.84L204.01 337.12C219.42 332.12 229.01 320.48 229.01 306.84V49.6901C229.01 49.0695 228.763 48.4743 228.325 48.0355C227.886 47.5966 227.291 47.3501 226.67 47.3501" fill="#6F1D46"/>
<path d="M77.5605 22.46L77.4705 22.68C77.4394 22.7483 77.4127 22.8184 77.3905 22.89C77.3905 22.97 77.3905 23.04 77.3905 23.11C77.3856 23.1866 77.3856 23.2634 77.3905 23.34C77.3855 23.4132 77.3855 23.4868 77.3905 23.56C77.3905 23.64 77.3905 23.72 77.3905 23.79C77.3857 23.8599 77.3857 23.9301 77.3905 24C77.4046 24.0846 77.4246 24.1682 77.4505 24.25V24.34C77.4663 24.3851 77.4864 24.4287 77.5105 24.47C77.5277 24.5195 77.5512 24.5665 77.5805 24.61C77.6312 24.7068 77.688 24.8003 77.7505 24.89V24.96C77.8334 25.0662 77.9272 25.1634 78.0305 25.25C78.0592 25.282 78.0929 25.309 78.1305 25.33L78.3705 25.51H78.4405C78.5889 25.592 78.7467 25.6558 78.9105 25.7H79.0105C79.1805 25.7435 79.355 25.767 79.5305 25.77C79.7125 25.7664 79.8935 25.7429 80.0705 25.7H80.2105H80.3605L97.6605 19.18C104.859 22.9031 112.867 24.789 120.97 24.67C140.63 24.67 150.58 14.94 150.97 14.53C151.189 14.3134 151.363 14.0556 151.481 13.7715C151.599 13.4875 151.66 13.1828 151.66 12.875C151.66 12.5672 151.599 12.2625 151.481 11.9785C151.363 11.6944 151.189 11.4366 150.97 11.22C150.56 10.81 140.61 1.08 120.97 1.08C112.938 0.974751 105.003 2.84273 97.8605 6.52L80.4605 0.0500002H80.3505L80.1505 0H79.9005H79.4505H79.2605H79.0105L78.8605 0.0599999L78.6205 0.16H78.5405L78.4505 0.22L78.2305 0.37L78.0805 0.51C78.0166 0.562726 77.9595 0.62319 77.9105 0.69C77.8617 0.742265 77.8181 0.799206 77.7805 0.86C77.7337 0.920955 77.6904 0.98438 77.6505 1.05C77.6111 1.12046 77.5777 1.19405 77.5505 1.27L77.4905 1.38C77.4905 1.38 77.4905 1.44 77.4905 1.47C77.4624 1.54432 77.4422 1.62142 77.4305 1.7C77.4266 1.77328 77.4266 1.84672 77.4305 1.92C77.4305 2 77.4305 2.07 77.4305 2.15C77.4255 2.22659 77.4255 2.30341 77.4305 2.38C77.4256 2.45325 77.4256 2.52675 77.4305 2.6C77.4413 2.67454 77.458 2.74811 77.4805 2.82C77.4993 2.89143 77.5226 2.96158 77.5505 3.03L77.6405 3.25C77.6442 3.27988 77.6442 3.31012 77.6405 3.34L82.9505 12.83L77.6405 22.33C77.6442 22.3599 77.6442 22.3901 77.6405 22.42M145.79 12.83C142.19 15.38 133.95 19.95 121.16 19.95C113.481 20.0979 105.896 18.2327 99.1605 14.54C99.0363 14.4681 98.9057 14.4078 98.7705 14.36H98.7005C98.5927 14.3271 98.4823 14.3037 98.3705 14.29H98.2205H97.9805H97.7305H97.5805C97.461 14.3126 97.3438 14.3461 97.2305 14.39L84.8005 19.07L88.2705 12.87L84.7805 6.64L97.2405 11.27H97.3505H97.5205H97.7805H97.9505H98.0505H98.2405H98.3605C98.4963 11.2578 98.6304 11.231 98.7605 11.19L99.1105 11.03C105.855 7.40753 113.427 5.60174 121.08 5.79C133.87 5.79 142.08 10.36 145.71 12.9" fill="#6F1D46"/>
<path d="M86.3002 285.06H83.8602C83.6671 283.8 83.3316 282.565 82.8602 281.38L84.9602 280.17C85.2579 280.036 85.5241 279.84 85.7413 279.596C85.9586 279.352 86.1222 279.066 86.2215 278.754C86.3207 278.443 86.3534 278.115 86.3175 277.79C86.2815 277.465 86.1777 277.152 86.0128 276.87C85.8478 276.588 85.6255 276.344 85.3601 276.153C85.0947 275.963 84.7922 275.83 84.4723 275.764C84.1524 275.698 83.8222 275.7 83.5031 275.77C83.1841 275.84 82.8832 275.976 82.6202 276.17L80.4802 277.4C79.7158 276.397 78.8365 275.488 77.8602 274.69L79.1002 272.55C79.308 272.287 79.457 271.983 79.5371 271.658C79.6173 271.333 79.6267 270.994 79.5647 270.665C79.5028 270.336 79.3709 270.024 79.1781 269.75C78.9852 269.477 78.7358 269.247 78.4467 269.078C78.1576 268.909 77.8356 268.804 77.5025 268.77C77.1693 268.736 76.8327 268.774 76.5155 268.881C76.1983 268.989 75.9077 269.163 75.6636 269.392C75.4194 269.621 75.2273 269.9 75.1002 270.21L73.8602 272.31C72.6762 271.846 71.4406 271.528 70.1802 271.36V268.9C70.1802 268.279 69.9337 267.684 69.4948 267.245C69.056 266.807 68.4608 266.56 67.8402 266.56C67.2196 266.56 66.6244 266.807 66.1856 267.245C65.7467 267.684 65.5002 268.279 65.5002 268.9V271.36C64.2395 271.526 63.0038 271.845 61.8202 272.31L60.6102 270.21C60.4831 269.9 60.291 269.621 60.0468 269.392C59.8027 269.163 59.5121 268.989 59.1949 268.881C58.8776 268.774 58.5411 268.736 58.2079 268.77C57.8747 268.804 57.5527 268.909 57.2637 269.078C56.9746 269.247 56.7252 269.477 56.5323 269.75C56.3395 270.024 56.2076 270.336 56.1456 270.665C56.0837 270.994 56.0931 271.333 56.1733 271.658C56.2534 271.983 56.4024 272.287 56.6102 272.55L57.8502 274.69C56.8552 275.472 55.9556 276.368 55.1702 277.36L53.0302 276.13C52.7672 275.933 52.4655 275.794 52.1449 275.722C51.8243 275.65 51.4921 275.647 51.1701 275.712C50.8481 275.777 50.5436 275.91 50.2765 276.102C50.0095 276.293 49.7859 276.539 49.6205 276.823C49.4551 277.106 49.3517 277.422 49.3169 277.749C49.2822 278.076 49.3169 278.406 49.4189 278.718C49.5208 279.031 49.6877 279.318 49.9085 279.561C50.1294 279.805 50.3992 279.998 50.7002 280.13L52.7902 281.34C52.3345 282.526 52.0191 283.761 51.8502 285.02H49.2902C48.6696 285.02 48.0744 285.267 47.6356 285.705C47.1967 286.144 46.9502 286.739 46.9502 287.36C46.9502 287.981 47.1967 288.576 47.6356 289.015C48.0744 289.454 48.6696 289.7 49.2902 289.7H51.7502C51.9163 290.96 52.2319 292.195 52.6902 293.38L50.6002 294.59C50.1001 294.917 49.744 295.423 49.6049 296.004C49.4659 296.585 49.5544 297.198 49.8524 297.716C50.1504 298.233 50.6352 298.618 51.2075 298.79C51.7798 298.962 52.3961 298.908 52.9302 298.64L55.0702 297.4C55.8555 298.395 56.755 299.295 57.7502 300.08L56.5102 302.22C56.2022 302.757 56.1198 303.395 56.281 303.993C56.4422 304.591 56.8339 305.1 57.3702 305.41C57.724 305.621 58.1284 305.732 58.5402 305.73C58.9467 305.726 59.3451 305.617 59.6959 305.411C60.0468 305.206 60.3378 304.913 60.5402 304.56L61.7502 302.46C62.9332 302.937 64.1684 303.273 65.4302 303.46V305.92C65.4302 306.541 65.6767 307.136 66.1156 307.575C66.5544 308.014 67.1496 308.26 67.7702 308.26C68.3908 308.26 68.986 308.014 69.4248 307.575C69.8637 307.136 70.1102 306.541 70.1102 305.92V303.46C71.3717 303.272 72.6068 302.936 73.7902 302.46L75.0002 304.56C75.2033 304.912 75.4945 305.205 75.8452 305.41C76.1959 305.615 76.5939 305.725 77.0002 305.73C77.4087 305.73 77.8096 305.62 78.1602 305.41C78.6965 305.1 79.0882 304.591 79.2494 303.993C79.4106 303.395 79.3282 302.757 79.0202 302.22L77.8602 300.12C78.8554 299.335 79.7549 298.435 80.5402 297.44L82.6802 298.68C83.2157 298.966 83.8414 299.033 84.4252 298.866C85.009 298.699 85.5051 298.312 85.8088 297.787C86.1126 297.261 86.2001 296.638 86.0529 296.049C85.9058 295.46 85.5355 294.951 85.0202 294.63L82.8602 293.42C83.3303 292.252 83.6658 291.034 83.8602 289.79H86.3202C86.9408 289.79 87.536 289.544 87.9748 289.105C88.4137 288.666 88.6602 288.071 88.6602 287.45C88.6602 286.829 88.4137 286.234 87.9748 285.795C87.536 285.357 86.9408 285.11 86.3202 285.11M67.8102 299.11C65.514 299.11 63.2693 298.429 61.36 297.153C59.4508 295.878 57.9627 294.064 57.084 291.943C56.2052 289.822 55.9753 287.487 56.4233 285.235C56.8712 282.983 57.977 280.914 59.6007 279.291C61.2244 277.667 63.2931 276.561 65.5452 276.113C67.7973 275.665 70.1317 275.895 72.2531 276.774C74.3746 277.653 76.1878 279.141 77.4636 281.05C78.7393 282.959 79.4202 285.204 79.4202 287.5C79.4149 290.578 78.19 293.528 76.0139 295.704C73.8377 297.88 70.8877 299.105 67.8102 299.11Z" fill="#6F1D46"/>
</svg>
